solid patch0
  facet normal 0.999689 0.0249307 -0
    outer loop
       vertex -0.002 0 -0.005
       vertex -0.00205967 0.0023926 -0.005
       vertex -0.002 0 0.005
    endloop
  endfacet
  facet normal 0.999689 0.0249307 0
    outer loop
       vertex -0.002 0 0.005
       vertex -0.00205967 0.0023926 -0.005
       vertex -0.00205967 0.0023926 0.005
    endloop
  endfacet
  facet normal 0.997204 0.0747301 0
    outer loop
       vertex -0.00205967 0.0023926 0.005
       vertex -0.00223852 0.00477926 -0.005
       vertex -0.00223852 0.00477926 0.005
    endloop
  endfacet
  facet normal 0.992239 0.124344 0
    outer loop
       vertex -0.00223852 0.00477926 0.005
       vertex -0.00223852 0.00477926 -0.005
       vertex -0.00253612 0.00715403 0.005
    endloop
  endfacet
  facet normal 0.997204 0.0747301 -0
    outer loop
       vertex -0.00205967 0.0023926 -0.005
       vertex -0.00223852 0.00477926 -0.005
       vertex -0.00205967 0.0023926 0.005
    endloop
  endfacet
  facet normal 0.992239 0.124344 0
    outer loop
       vertex -0.00223852 0.00477926 -0.005
       vertex -0.00253612 0.00715403 -0.005
       vertex -0.00253612 0.00715403 0.005
    endloop
  endfacet
  facet normal 0.984808 0.173648 0
    outer loop
       vertex -0.00253612 0.00715403 0.005
       vertex -0.00295172 0.00951101 -0.005
       vertex -0.00295172 0.00951101 0.005
    endloop
  endfacet
  facet normal 0.974928 0.222521 0
    outer loop
       vertex -0.00295172 0.00951101 0.005
       vertex -0.00295172 0.00951101 -0.005
       vertex -0.00348429 0.0118444 0.005
    endloop
  endfacet
  facet normal 0.984808 0.173648 -0
    outer loop
       vertex -0.00253612 0.00715403 -0.005
       vertex -0.00295172 0.00951101 -0.005
       vertex -0.00253612 0.00715403 0.005
    endloop
  endfacet
  facet normal 0.974928 0.222521 0
    outer loop
       vertex -0.00295172 0.00951101 -0.005
       vertex -0.00348429 0.0118444 -0.005
       vertex -0.00348429 0.0118444 0.005
    endloop
  endfacet
  facet normal 0.962624 0.27084 0
    outer loop
       vertex -0.00348429 0.0118444 0.005
       vertex -0.00413251 0.0141482 -0.005
       vertex -0.00413251 0.0141482 0.005
    endloop
  endfacet
  facet normal 0.962624 0.27084 -0
    outer loop
       vertex -0.00348429 0.0118444 -0.005
       vertex -0.00413251 0.0141482 -0.005
       vertex -0.00348429 0.0118444 0.005
    endloop
  endfacet
  facet normal 0.947927 0.318487 0
    outer loop
       vertex -0.00413251 0.0141482 0.005
       vertex -0.00489475 0.016417 -0.005
       vertex -0.00489475 0.016417 0.005
    endloop
  endfacet
  facet normal 0.930874 0.365341 0
    outer loop
       vertex -0.00489475 0.016417 0.005
       vertex -0.00489475 0.016417 -0.005
       vertex -0.00576914 0.0186449 0.005
    endloop
  endfacet
  facet normal 0.947927 0.318487 -0
    outer loop
       vertex -0.00413251 0.0141482 -0.005
       vertex -0.00489475 0.016417 -0.005
       vertex -0.00413251 0.0141482 0.005
    endloop
  endfacet
  facet normal 0.930874 0.365341 0
    outer loop
       vertex -0.00489475 0.016417 -0.005
       vertex -0.00576914 0.0186449 -0.005
       vertex -0.00576914 0.0186449 0.005
    endloop
  endfacet
  facet normal 0.911506 0.411287 0
    outer loop
       vertex -0.00576914 0.0186449 0.005
       vertex -0.00675349 0.0208264 -0.005
       vertex -0.00675349 0.0208264 0.005
    endloop
  endfacet
  facet normal 0.911506 0.411287 -0
    outer loop
       vertex -0.00576914 0.0186449 -0.005
       vertex -0.00675349 0.0208264 -0.005
       vertex -0.00576914 0.0186449 0.005
    endloop
  endfacet
  facet normal 0.889872 0.456211 0
    outer loop
       vertex -0.00675349 0.0208264 0.005
       vertex -0.00784536 0.0229562 -0.005
       vertex -0.00784536 0.0229562 0.005
    endloop
  endfacet
  facet normal 0.889872 0.456211 -0
    outer loop
       vertex -0.00675349 0.0208264 -0.005
       vertex -0.00784536 0.0229562 -0.005
       vertex -0.00675349 0.0208264 0.005
    endloop
  endfacet
  facet normal 0.866026 0.5 -0
    outer loop
       vertex -0.00784536 0.0229562 -0.005
       vertex -0.00904204 0.0250289 -0.005
       vertex -0.00784536 0.0229562 0.005
    endloop
  endfacet
  facet normal 0.866026 0.5 0
    outer loop
       vertex -0.00784536 0.0229562 0.005
       vertex -0.00904204 0.0250289 -0.005
       vertex -0.00904204 0.0250289 0.005
    endloop
  endfacet
  facet normal 0.840026 0.542547 0
    outer loop
       vertex -0.00904204 0.0250289 0.005
       vertex -0.00904204 0.0250289 -0.005
       vertex -0.0103405 0.0270394 0.005
    endloop
  endfacet
  facet normal 0.840026 0.542547 0
    outer loop
       vertex -0.00904204 0.0250289 -0.005
       vertex -0.0103405 0.0270394 -0.005
       vertex -0.0103405 0.0270394 0.005
    endloop
  endfacet
  facet normal 0.811938 0.583743 -0
    outer loop
       vertex -0.0103405 0.0270394 -0.005
       vertex -0.0117376 0.0289826 -0.005
       vertex -0.0103405 0.0270394 0.005
    endloop
  endfacet
  facet normal 0.811938 0.583743 0
    outer loop
       vertex -0.0103405 0.0270394 0.005
       vertex -0.0117376 0.0289826 -0.005
       vertex -0.0117376 0.0289826 0.005
    endloop
  endfacet
  facet normal 0.781831 0.62349 -0
    outer loop
       vertex -0.0117376 0.0289826 -0.005
       vertex -0.0132299 0.0308538 -0.005
       vertex -0.0117376 0.0289826 0.005
    endloop
  endfacet
  facet normal 0.781831 0.62349 0
    outer loop
       vertex -0.0117376 0.0289826 0.005
       vertex -0.0132299 0.0308538 -0.005
       vertex -0.0132299 0.0308538 0.005
    endloop
  endfacet
  facet normal 0.749781 0.661686 0
    outer loop
       vertex -0.0132299 0.0308538 0.005
       vertex -0.0148135 0.0326483 -0.005
       vertex -0.0148135 0.0326483 0.005
    endloop
  endfacet
  facet normal 0.715867 0.698237 0
    outer loop
       vertex -0.0148135 0.0326483 0.005
       vertex -0.0148135 0.0326483 -0.005
       vertex -0.0164846 0.0343616 0.005
    endloop
  endfacet
  facet normal 0.749781 0.661686 -0
    outer loop
       vertex -0.0132299 0.0308538 -0.005
       vertex -0.0148135 0.0326483 -0.005
       vertex -0.0132299 0.0308538 0.005
    endloop
  endfacet
  facet normal 0.715867 0.698237 0
    outer loop
       vertex -0.0148135 0.0326483 -0.005
       vertex -0.0164846 0.0343616 -0.005
       vertex -0.0164846 0.0343616 0.005
    endloop
  endfacet
  facet normal 0.680172 0.733052 0
    outer loop
       vertex -0.0164846 0.0343616 0.005
       vertex -0.0182391 0.0359895 -0.005
       vertex -0.0182391 0.0359895 0.005
    endloop
  endfacet
  facet normal 0.680172 0.733052 -0
    outer loop
       vertex -0.0164846 0.0343616 -0.005
       vertex -0.0182391 0.0359895 -0.005
       vertex -0.0164846 0.0343616 0.005
    endloop
  endfacet
  facet normal 0.642788 0.766044 0
    outer loop
       vertex -0.0182391 0.0359895 0.005
       vertex -0.0200725 0.0375279 -0.005
       vertex -0.0200725 0.0375279 0.005
    endloop
  endfacet
  facet normal 0.603804 0.797133 0
    outer loop
       vertex -0.0200725 0.0375279 0.005
       vertex -0.0200725 0.0375279 -0.005
       vertex -0.0219803 0.038973 0.005
    endloop
  endfacet
  facet normal 0.642788 0.766044 -0
    outer loop
       vertex -0.0182391 0.0359895 -0.005
       vertex -0.0200725 0.0375279 -0.005
       vertex -0.0182391 0.0359895 0.005
    endloop
  endfacet
  facet normal 0.603804 0.797133 0
    outer loop
       vertex -0.0200725 0.0375279 -0.005
       vertex -0.0219803 0.038973 -0.005
       vertex -0.0219803 0.038973 0.005
    endloop
  endfacet
  facet normal 0.56332 0.826239 0
    outer loop
       vertex -0.0219803 0.038973 0.005
       vertex -0.0239578 0.0403212 -0.005
       vertex -0.0239578 0.0403212 0.005
    endloop
  endfacet
  facet normal 0.56332 0.826239 -0
    outer loop
       vertex -0.0219803 0.038973 -0.005
       vertex -0.0239578 0.0403212 -0.005
       vertex -0.0219803 0.038973 0.005
    endloop
  endfacet
  facet normal 0.521435 0.853291 0
    outer loop
       vertex -0.0239578 0.0403212 0.005
       vertex -0.026 0.0415692 -0.005
       vertex -0.026 0.0415692 0.005
    endloop
  endfacet
  facet normal 0.521435 0.853291 -0
    outer loop
       vertex -0.0239578 0.0403212 -0.005
       vertex -0.026 0.0415692 -0.005
       vertex -0.0239578 0.0403212 0.005
    endloop
  endfacet
  facet normal 0.478255 0.878221 0
    outer loop
       vertex -0.026 0.0415692 0.005
       vertex -0.0281019 0.0427138 -0.005
       vertex -0.0281019 0.0427138 0.005
    endloop
  endfacet
  facet normal 0.478255 0.878221 -0
    outer loop
       vertex -0.026 0.0415692 -0.005
       vertex -0.0281019 0.0427138 -0.005
       vertex -0.026 0.0415692 0.005
    endloop
  endfacet
  facet normal 0.433883 0.900969 0
    outer loop
       vertex -0.0281019 0.0427138 0.005
       vertex -0.0302582 0.0437523 -0.005
       vertex -0.0302582 0.0437523 0.005
    endloop
  endfacet
  facet normal 0.433883 0.900969 -0
    outer loop
       vertex -0.0281019 0.0427138 -0.005
       vertex -0.0302582 0.0437523 -0.005
       vertex -0.0281019 0.0427138 0.005
    endloop
  endfacet
  facet normal 0.388434 0.921477 0
    outer loop
       vertex -0.0302582 0.0437523 0.005
       vertex -0.0324636 0.0446819 -0.005
       vertex -0.0324636 0.0446819 0.005
    endloop
  endfacet
  facet normal 0.388434 0.921477 -0
    outer loop
       vertex -0.0302582 0.0437523 -0.005
       vertex -0.0324636 0.0446819 -0.005
       vertex -0.0302582 0.0437523 0.005
    endloop
  endfacet
  facet normal 0.34202 0.939693 0
    outer loop
       vertex -0.0324636 0.0446819 0.005
       vertex -0.0347126 0.0455005 -0.005
       vertex -0.0347126 0.0455005 0.005
    endloop
  endfacet
  facet normal 0.34202 0.939693 -0
    outer loop
       vertex -0.0324636 0.0446819 -0.005
       vertex -0.0347126 0.0455005 -0.005
       vertex -0.0324636 0.0446819 0.005
    endloop
  endfacet
  facet normal 0.294756 0.955573 0
    outer loop
       vertex -0.0347126 0.0455005 0.005
       vertex -0.0369997 0.046206 -0.005
       vertex -0.0369997 0.046206 0.005
    endloop
  endfacet
  facet normal 0.294756 0.955573 -0
    outer loop
       vertex -0.0347126 0.0455005 -0.005
       vertex -0.0369997 0.046206 -0.005
       vertex -0.0347126 0.0455005 0.005
    endloop
  endfacet
  facet normal 0.246757 0.969077 0
    outer loop
       vertex -0.0369997 0.046206 0.005
       vertex -0.039319 0.0467965 -0.005
       vertex -0.039319 0.0467965 0.005
    endloop
  endfacet
  facet normal 0.246757 0.969077 -0
    outer loop
       vertex -0.0369997 0.046206 -0.005
       vertex -0.039319 0.0467965 -0.005
       vertex -0.0369997 0.046206 0.005
    endloop
  endfacet
  facet normal 0.198146 0.980173 0
    outer loop
       vertex -0.039319 0.0467965 0.005
       vertex -0.0416649 0.0472708 -0.005
       vertex -0.0416649 0.0472708 0.005
    endloop
  endfacet
  facet normal 0.149043 0.988831 0
    outer loop
       vertex -0.0416649 0.0472708 0.005
       vertex -0.0416649 0.0472708 -0.005
       vertex -0.0440315 0.0476275 0.005
    endloop
  endfacet
  facet normal 0.198146 0.980173 -0
    outer loop
       vertex -0.039319 0.0467965 -0.005
       vertex -0.0416649 0.0472708 -0.005
       vertex -0.039319 0.0467965 0.005
    endloop
  endfacet
  facet normal 0.149043 0.988831 0
    outer loop
       vertex -0.0416649 0.0472708 -0.005
       vertex -0.0440315 0.0476275 -0.005
       vertex -0.0440315 0.0476275 0.005
    endloop
  endfacet
  facet normal 0.0995678 0.995031 0
    outer loop
       vertex -0.0440315 0.0476275 0.005
       vertex -0.046413 0.0478658 -0.005
       vertex -0.046413 0.0478658 0.005
    endloop
  endfacet
  facet normal 0.0995678 0.995031 -0
    outer loop
       vertex -0.0440315 0.0476275 -0.005
       vertex -0.046413 0.0478658 -0.005
       vertex -0.0440315 0.0476275 0.005
    endloop
  endfacet
  facet normal 0.0498453 0.998757 0
    outer loop
       vertex -0.046413 0.0478658 0.005
       vertex -0.0488033 0.0479851 -0.005
       vertex -0.0488033 0.0479851 0.005
    endloop
  endfacet
  facet normal 0.0498453 0.998757 -0
    outer loop
       vertex -0.046413 0.0478658 -0.005
       vertex -0.0488033 0.0479851 -0.005
       vertex -0.046413 0.0478658 0.005
    endloop
  endfacet
  facet normal 0 1 0
    outer loop
       vertex -0.0488033 0.0479851 0.005
       vertex -0.0511967 0.0479851 -0.005
       vertex -0.0511967 0.0479851 0.005
    endloop
  endfacet
  facet normal 0 1 -0
    outer loop
       vertex -0.0488033 0.0479851 -0.005
       vertex -0.0511967 0.0479851 -0.005
       vertex -0.0488033 0.0479851 0.005
    endloop
  endfacet
  facet normal -0.0498453 0.998757 0
    outer loop
       vertex -0.0511967 0.0479851 0.005
       vertex -0.053587 0.0478658 -0.005
       vertex -0.053587 0.0478658 0.005
    endloop
  endfacet
  facet normal -0.0498453 0.998757 0
    outer loop
       vertex -0.0511967 0.0479851 -0.005
       vertex -0.053587 0.0478658 -0.005
       vertex -0.0511967 0.0479851 0.005
    endloop
  endfacet
  facet normal -0.0995678 0.995031 0
    outer loop
       vertex -0.053587 0.0478658 0.005
       vertex -0.0559685 0.0476275 -0.005
       vertex -0.0559685 0.0476275 0.005
    endloop
  endfacet
  facet normal -0.0995678 0.995031 0
    outer loop
       vertex -0.053587 0.0478658 -0.005
       vertex -0.0559685 0.0476275 -0.005
       vertex -0.053587 0.0478658 0.005
    endloop
  endfacet
  facet normal -0.149043 0.988831 0
    outer loop
       vertex -0.0559685 0.0476275 0.005
       vertex -0.0583351 0.0472708 -0.005
       vertex -0.0583351 0.0472708 0.005
    endloop
  endfacet
  facet normal -0.149043 0.988831 0
    outer loop
       vertex -0.0559685 0.0476275 -0.005
       vertex -0.0583351 0.0472708 -0.005
       vertex -0.0559685 0.0476275 0.005
    endloop
  endfacet
  facet normal -0.198146 0.980173 0
    outer loop
       vertex -0.0583351 0.0472708 0.005
       vertex -0.060681 0.0467965 -0.005
       vertex -0.060681 0.0467965 0.005
    endloop
  endfacet
  facet normal -0.198146 0.980173 0
    outer loop
       vertex -0.0583351 0.0472708 -0.005
       vertex -0.060681 0.0467965 -0.005
       vertex -0.0583351 0.0472708 0.005
    endloop
  endfacet
  facet normal -0.246757 0.969077 0
    outer loop
       vertex -0.060681 0.0467965 0.005
       vertex -0.0630003 0.046206 -0.005
       vertex -0.0630003 0.046206 0.005
    endloop
  endfacet
  facet normal -0.294755 0.955573 0
    outer loop
       vertex -0.0630003 0.046206 0.005
       vertex -0.0630003 0.046206 -0.005
       vertex -0.0652874 0.0455005 0.005
    endloop
  endfacet
  facet normal -0.246757 0.969077 0
    outer loop
       vertex -0.060681 0.0467965 -0.005
       vertex -0.0630003 0.046206 -0.005
       vertex -0.060681 0.0467965 0.005
    endloop
  endfacet
  facet normal -0.294755 0.955573 0
    outer loop
       vertex -0.0630003 0.046206 -0.005
       vertex -0.0652874 0.0455005 -0.005
       vertex -0.0652874 0.0455005 0.005
    endloop
  endfacet
  facet normal -0.34202 0.939692 0
    outer loop
       vertex -0.0652874 0.0455005 0.005
       vertex -0.0652874 0.0455005 -0.005
       vertex -0.0675364 0.0446819 0.005
    endloop
  endfacet
  facet normal -0.34202 0.939692 0
    outer loop
       vertex -0.0652874 0.0455005 -0.005
       vertex -0.0675364 0.0446819 -0.005
       vertex -0.0675364 0.0446819 0.005
    endloop
  endfacet
  facet normal -0.388434 0.921477 0
    outer loop
       vertex -0.0675364 0.0446819 -0.005
       vertex -0.0697418 0.0437523 -0.005
       vertex -0.0675364 0.0446819 0.005
    endloop
  endfacet
  facet normal -0.388434 0.921477 0
    outer loop
       vertex -0.0675364 0.0446819 0.005
       vertex -0.0697418 0.0437523 -0.005
       vertex -0.0697418 0.0437523 0.005
    endloop
  endfacet
  facet normal -0.433884 0.900969 0
    outer loop
       vertex -0.0697418 0.0437523 -0.005
       vertex -0.0718981 0.0427138 -0.005
       vertex -0.0697418 0.0437523 0.005
    endloop
  endfacet
  facet normal -0.433884 0.900969 0
    outer loop
       vertex -0.0697418 0.0437523 0.005
       vertex -0.0718981 0.0427138 -0.005
       vertex -0.0718981 0.0427138 0.005
    endloop
  endfacet
  facet normal -0.478255 0.878221 0
    outer loop
       vertex -0.0718981 0.0427138 -0.005
       vertex -0.074 0.0415692 -0.005
       vertex -0.0718981 0.0427138 0.005
    endloop
  endfacet
  facet normal -0.478255 0.878221 0
    outer loop
       vertex -0.0718981 0.0427138 0.005
       vertex -0.074 0.0415692 -0.005
       vertex -0.074 0.0415692 0.005
    endloop
  endfacet
  facet normal -0.521435 0.853291 0
    outer loop
       vertex -0.074 0.0415692 -0.005
       vertex -0.0760422 0.0403212 -0.005
       vertex -0.074 0.0415692 0.005
    endloop
  endfacet
  facet normal -0.521435 0.853291 0
    outer loop
       vertex -0.074 0.0415692 0.005
       vertex -0.0760422 0.0403212 -0.005
       vertex -0.0760422 0.0403212 0.005
    endloop
  endfacet
  facet normal -0.56332 0.826239 0
    outer loop
       vertex -0.0760422 0.0403212 -0.005
       vertex -0.0780197 0.038973 -0.005
       vertex -0.0760422 0.0403212 0.005
    endloop
  endfacet
  facet normal -0.56332 0.826239 0
    outer loop
       vertex -0.0760422 0.0403212 0.005
       vertex -0.0780197 0.038973 -0.005
       vertex -0.0780197 0.038973 0.005
    endloop
  endfacet
  facet normal -0.603804 0.797133 0
    outer loop
       vertex -0.0780197 0.038973 -0.005
       vertex -0.0799275 0.0375279 -0.005
       vertex -0.0780197 0.038973 0.005
    endloop
  endfacet
  facet normal -0.603804 0.797133 0
    outer loop
       vertex -0.0780197 0.038973 0.005
       vertex -0.0799275 0.0375279 -0.005
       vertex -0.0799275 0.0375279 0.005
    endloop
  endfacet
  facet normal -0.642789 0.766043 0
    outer loop
       vertex -0.0799275 0.0375279 -0.005
       vertex -0.0817609 0.0359895 -0.005
       vertex -0.0799275 0.0375279 0.005
    endloop
  endfacet
  facet normal -0.642789 0.766043 0
    outer loop
       vertex -0.0799275 0.0375279 0.005
       vertex -0.0817609 0.0359895 -0.005
       vertex -0.0817609 0.0359895 0.005
    endloop
  endfacet
  facet normal -0.680172 0.733052 0
    outer loop
       vertex -0.0817609 0.0359895 0.005
       vertex -0.0817609 0.0359895 -0.005
       vertex -0.0835154 0.0343616 0.005
    endloop
  endfacet
  facet normal -0.680172 0.733052 0
    outer loop
       vertex -0.0817609 0.0359895 -0.005
       vertex -0.0835154 0.0343616 -0.005
       vertex -0.0835154 0.0343616 0.005
    endloop
  endfacet
  facet normal -0.715866 0.698238 0
    outer loop
       vertex -0.0835154 0.0343616 0.005
       vertex -0.0851865 0.0326483 -0.005
       vertex -0.0851865 0.0326483 0.005
    endloop
  endfacet
  facet normal -0.715866 0.698238 0
    outer loop
       vertex -0.0835154 0.0343616 -0.005
       vertex -0.0851865 0.0326483 -0.005
       vertex -0.0835154 0.0343616 0.005
    endloop
  endfacet
  facet normal -0.749782 0.661685 0
    outer loop
       vertex -0.0851865 0.0326483 0.005
       vertex -0.0867701 0.0308538 -0.005
       vertex -0.0867701 0.0308538 0.005
    endloop
  endfacet
  facet normal -0.749782 0.661685 0
    outer loop
       vertex -0.0851865 0.0326483 -0.005
       vertex -0.0867701 0.0308538 -0.005
       vertex -0.0851865 0.0326483 0.005
    endloop
  endfacet
  facet normal -0.781832 0.62349 0
    outer loop
       vertex -0.0867701 0.0308538 0.005
       vertex -0.0882624 0.0289826 -0.005
       vertex -0.0882624 0.0289826 0.005
    endloop
  endfacet
  facet normal -0.811938 0.583744 0
    outer loop
       vertex -0.0882624 0.0289826 0.005
       vertex -0.0882624 0.0289826 -0.005
       vertex -0.0896595 0.0270394 0.005
    endloop
  endfacet
  facet normal -0.781832 0.62349 0
    outer loop
       vertex -0.0867701 0.0308538 -0.005
       vertex -0.0882624 0.0289826 -0.005
       vertex -0.0867701 0.0308538 0.005
    endloop
  endfacet
  facet normal -0.811938 0.583744 0
    outer loop
       vertex -0.0882624 0.0289826 -0.005
       vertex -0.0896595 0.0270394 -0.005
       vertex -0.0896595 0.0270394 0.005
    endloop
  endfacet
  facet normal -0.840026 0.542546 0
    outer loop
       vertex -0.0896595 0.0270394 0.005
       vertex -0.090958 0.0250289 -0.005
       vertex -0.090958 0.0250289 0.005
    endloop
  endfacet
  facet normal -0.866026 0.499999 0
    outer loop
       vertex -0.090958 0.0250289 0.005
       vertex -0.090958 0.0250289 -0.005
       vertex -0.0921546 0.0229562 0.005
    endloop
  endfacet
  facet normal -0.840026 0.542546 0
    outer loop
       vertex -0.0896595 0.0270394 -0.005
       vertex -0.090958 0.0250289 -0.005
       vertex -0.0896595 0.0270394 0.005
    endloop
  endfacet
  facet normal -0.866026 0.499999 0
    outer loop
       vertex -0.090958 0.0250289 -0.005
       vertex -0.0921546 0.0229562 -0.005
       vertex -0.0921546 0.0229562 0.005
    endloop
  endfacet
  facet normal -0.889871 0.456212 0
    outer loop
       vertex -0.0921546 0.0229562 0.005
       vertex -0.0932465 0.0208264 -0.005
       vertex -0.0932465 0.0208264 0.005
    endloop
  endfacet
  facet normal -0.911506 0.411287 0
    outer loop
       vertex -0.0932465 0.0208264 0.005
       vertex -0.0932465 0.0208264 -0.005
       vertex -0.0942309 0.0186449 0.005
    endloop
  endfacet
  facet normal -0.889871 0.456212 0
    outer loop
       vertex -0.0921546 0.0229562 -0.005
       vertex -0.0932465 0.0208264 -0.005
       vertex -0.0921546 0.0229562 0.005
    endloop
  endfacet
  facet normal -0.911506 0.411287 0
    outer loop
       vertex -0.0932465 0.0208264 -0.005
       vertex -0.0942309 0.0186449 -0.005
       vertex -0.0942309 0.0186449 0.005
    endloop
  endfacet
  facet normal -0.930873 0.365342 0
    outer loop
       vertex -0.0942309 0.0186449 0.005
       vertex -0.0951052 0.016417 -0.005
       vertex -0.0951052 0.016417 0.005
    endloop
  endfacet
  facet normal -0.930873 0.365342 0
    outer loop
       vertex -0.0942309 0.0186449 -0.005
       vertex -0.0951052 0.016417 -0.005
       vertex -0.0942309 0.0186449 0.005
    endloop
  endfacet
  facet normal -0.947928 0.318485 0
    outer loop
       vertex -0.0951052 0.016417 0.005
       vertex -0.0958675 0.0141482 -0.005
       vertex -0.0958675 0.0141482 0.005
    endloop
  endfacet
  facet normal -0.962624 0.270841 0
    outer loop
       vertex -0.0958675 0.0141482 0.005
       vertex -0.0958675 0.0141482 -0.005
       vertex -0.0965157 0.0118444 0.005
    endloop
  endfacet
  facet normal -0.947928 0.318485 0
    outer loop
       vertex -0.0951052 0.016417 -0.005
       vertex -0.0958675 0.0141482 -0.005
       vertex -0.0951052 0.016417 0.005
    endloop
  endfacet
  facet normal -0.962624 0.270841 0
    outer loop
       vertex -0.0958675 0.0141482 -0.005
       vertex -0.0965157 0.0118444 -0.005
       vertex -0.0965157 0.0118444 0.005
    endloop
  endfacet
  facet normal -0.974928 0.222521 0
    outer loop
       vertex -0.0965157 0.0118444 0.005
       vertex -0.0970483 0.00951101 -0.005
       vertex -0.0970483 0.00951101 0.005
    endloop
  endfacet
  facet normal -0.974928 0.222521 0
    outer loop
       vertex -0.0965157 0.0118444 -0.005
       vertex -0.0970483 0.00951101 -0.005
       vertex -0.0965157 0.0118444 0.005
    endloop
  endfacet
  facet normal -0.984808 0.17365 0
    outer loop
       vertex -0.0970483 0.00951101 0.005
       vertex -0.0974639 0.00715403 -0.005
       vertex -0.0974639 0.00715403 0.005
    endloop
  endfacet
  facet normal -0.984808 0.17365 0
    outer loop
       vertex -0.0970483 0.00951101 -0.005
       vertex -0.0974639 0.00715403 -0.005
       vertex -0.0970483 0.00951101 0.005
    endloop
  endfacet
  facet normal -0.992239 0.124341 0
    outer loop
       vertex -0.0974639 0.00715403 0.005
       vertex -0.0977615 0.00477926 -0.005
       vertex -0.0977615 0.00477926 0.005
    endloop
  endfacet
  facet normal -0.992239 0.124341 0
    outer loop
       vertex -0.0974639 0.00715403 -0.005
       vertex -0.0977615 0.00477926 -0.005
       vertex -0.0974639 0.00715403 0.005
    endloop
  endfacet
  facet normal -0.997204 0.0747305 0
    outer loop
       vertex -0.0977615 0.00477926 -0.005
       vertex -0.0979403 0.0023926 -0.005
       vertex -0.0977615 0.00477926 0.005
    endloop
  endfacet
  facet normal -0.997204 0.0747305 0
    outer loop
       vertex -0.0977615 0.00477926 0.005
       vertex -0.0979403 0.0023926 -0.005
       vertex -0.0979403 0.0023926 0.005
    endloop
  endfacet
  facet normal -0.999689 0.0249314 0
    outer loop
       vertex -0.0979403 0.0023926 0.005
       vertex -0.0979403 0.0023926 -0.005
       vertex -0.098 -1.64652e-16 0.005
    endloop
  endfacet
  facet normal -0.999689 0.0249314 0
    outer loop
       vertex -0.0979403 0.0023926 -0.005
       vertex -0.098 -1.64652e-16 -0.005
       vertex -0.098 -1.64652e-16 0.005
    endloop
  endfacet
  facet normal -0.999689 -0.0249314 -0
    outer loop
       vertex -0.098 -1.64652e-16 0.005
       vertex -0.098 -1.64652e-16 -0.005
       vertex -0.0979403 -0.0023926 0.005
    endloop
  endfacet
  facet normal -0.999689 -0.0249314 0
    outer loop
       vertex -0.098 -1.64652e-16 -0.005
       vertex -0.0979403 -0.0023926 -0.005
       vertex -0.0979403 -0.0023926 0.005
    endloop
  endfacet
  facet normal -0.997204 -0.0747305 0
    outer loop
       vertex -0.0979403 -0.0023926 -0.005
       vertex -0.0977615 -0.00477926 -0.005
       vertex -0.0979403 -0.0023926 0.005
    endloop
  endfacet
  facet normal -0.997204 -0.0747305 0
    outer loop
       vertex -0.0979403 -0.0023926 0.005
       vertex -0.0977615 -0.00477926 -0.005
       vertex -0.0977615 -0.00477926 0.005
    endloop
  endfacet
  facet normal -0.992239 -0.124341 -0
    outer loop
       vertex -0.0977615 -0.00477926 0.005
       vertex -0.0977615 -0.00477926 -0.005
       vertex -0.0974639 -0.00715403 0.005
    endloop
  endfacet
  facet normal -0.992239 -0.124341 0
    outer loop
       vertex -0.0977615 -0.00477926 -0.005
       vertex -0.0974639 -0.00715403 -0.005
       vertex -0.0974639 -0.00715403 0.005
    endloop
  endfacet
  facet normal -0.984808 -0.17365 -0
    outer loop
       vertex -0.0974639 -0.00715403 0.005
       vertex -0.0974639 -0.00715403 -0.005
       vertex -0.0970483 -0.00951101 0.005
    endloop
  endfacet
  facet normal -0.984808 -0.17365 0
    outer loop
       vertex -0.0974639 -0.00715403 -0.005
       vertex -0.0970483 -0.00951101 -0.005
       vertex -0.0970483 -0.00951101 0.005
    endloop
  endfacet
  facet normal -0.974928 -0.222521 -0
    outer loop
       vertex -0.0970483 -0.00951101 0.005
       vertex -0.0970483 -0.00951101 -0.005
       vertex -0.0965157 -0.0118444 0.005
    endloop
  endfacet
  facet normal -0.974928 -0.222521 0
    outer loop
       vertex -0.0970483 -0.00951101 -0.005
       vertex -0.0965157 -0.0118444 -0.005
       vertex -0.0965157 -0.0118444 0.005
    endloop
  endfacet
  facet normal -0.962624 -0.270841 0
    outer loop
       vertex -0.0965157 -0.0118444 -0.005
       vertex -0.0958675 -0.0141482 -0.005
       vertex -0.0965157 -0.0118444 0.005
    endloop
  endfacet
  facet normal -0.962624 -0.270841 0
    outer loop
       vertex -0.0965157 -0.0118444 0.005
       vertex -0.0958675 -0.0141482 -0.005
       vertex -0.0958675 -0.0141482 0.005
    endloop
  endfacet
  facet normal -0.947928 -0.318485 -0
    outer loop
       vertex -0.0958675 -0.0141482 0.005
       vertex -0.0958675 -0.0141482 -0.005
       vertex -0.0951052 -0.016417 0.005
    endloop
  endfacet
  facet normal -0.947928 -0.318485 0
    outer loop
       vertex -0.0958675 -0.0141482 -0.005
       vertex -0.0951052 -0.016417 -0.005
       vertex -0.0951052 -0.016417 0.005
    endloop
  endfacet
  facet normal -0.930873 -0.365342 0
    outer loop
       vertex -0.0951052 -0.016417 -0.005
       vertex -0.0942309 -0.0186449 -0.005
       vertex -0.0951052 -0.016417 0.005
    endloop
  endfacet
  facet normal -0.930873 -0.365342 0
    outer loop
       vertex -0.0951052 -0.016417 0.005
       vertex -0.0942309 -0.0186449 -0.005
       vertex -0.0942309 -0.0186449 0.005
    endloop
  endfacet
  facet normal -0.911506 -0.411287 0
    outer loop
       vertex -0.0942309 -0.0186449 -0.005
       vertex -0.0932465 -0.0208264 -0.005
       vertex -0.0942309 -0.0186449 0.005
    endloop
  endfacet
  facet normal -0.911506 -0.411287 0
    outer loop
       vertex -0.0942309 -0.0186449 0.005
       vertex -0.0932465 -0.0208264 -0.005
       vertex -0.0932465 -0.0208264 0.005
    endloop
  endfacet
  facet normal -0.889871 -0.456212 -0
    outer loop
       vertex -0.0932465 -0.0208264 0.005
       vertex -0.0932465 -0.0208264 -0.005
       vertex -0.0921546 -0.0229562 0.005
    endloop
  endfacet
  facet normal -0.889871 -0.456212 0
    outer loop
       vertex -0.0932465 -0.0208264 -0.005
       vertex -0.0921546 -0.0229562 -0.005
       vertex -0.0921546 -0.0229562 0.005
    endloop
  endfacet
  facet normal -0.866026 -0.499999 0
    outer loop
       vertex -0.0921546 -0.0229562 -0.005
       vertex -0.090958 -0.0250289 -0.005
       vertex -0.0921546 -0.0229562 0.005
    endloop
  endfacet
  facet normal -0.866026 -0.499999 0
    outer loop
       vertex -0.0921546 -0.0229562 0.005
       vertex -0.090958 -0.0250289 -0.005
       vertex -0.090958 -0.0250289 0.005
    endloop
  endfacet
  facet normal -0.840026 -0.542546 0
    outer loop
       vertex -0.090958 -0.0250289 -0.005
       vertex -0.0896595 -0.0270394 -0.005
       vertex -0.090958 -0.0250289 0.005
    endloop
  endfacet
  facet normal -0.840026 -0.542546 0
    outer loop
       vertex -0.090958 -0.0250289 0.005
       vertex -0.0896595 -0.0270394 -0.005
       vertex -0.0896595 -0.0270394 0.005
    endloop
  endfacet
  facet normal -0.811938 -0.583744 0
    outer loop
       vertex -0.0896595 -0.0270394 -0.005
       vertex -0.0882624 -0.0289826 -0.005
       vertex -0.0896595 -0.0270394 0.005
    endloop
  endfacet
  facet normal -0.811938 -0.583744 0
    outer loop
       vertex -0.0896595 -0.0270394 0.005
       vertex -0.0882624 -0.0289826 -0.005
       vertex -0.0882624 -0.0289826 0.005
    endloop
  endfacet
  facet normal -0.781832 -0.62349 -0
    outer loop
       vertex -0.0882624 -0.0289826 0.005
       vertex -0.0882624 -0.0289826 -0.005
       vertex -0.0867701 -0.0308538 0.005
    endloop
  endfacet
  facet normal -0.781832 -0.62349 0
    outer loop
       vertex -0.0882624 -0.0289826 -0.005
       vertex -0.0867701 -0.0308538 -0.005
       vertex -0.0867701 -0.0308538 0.005
    endloop
  endfacet
  facet normal -0.749782 -0.661685 0
    outer loop
       vertex -0.0867701 -0.0308538 -0.005
       vertex -0.0851865 -0.0326483 -0.005
       vertex -0.0867701 -0.0308538 0.005
    endloop
  endfacet
  facet normal -0.749782 -0.661685 0
    outer loop
       vertex -0.0867701 -0.0308538 0.005
       vertex -0.0851865 -0.0326483 -0.005
       vertex -0.0851865 -0.0326483 0.005
    endloop
  endfacet
  facet normal -0.715866 -0.698238 0
    outer loop
       vertex -0.0851865 -0.0326483 -0.005
       vertex -0.0835154 -0.0343616 -0.005
       vertex -0.0851865 -0.0326483 0.005
    endloop
  endfacet
  facet normal -0.715866 -0.698238 0
    outer loop
       vertex -0.0851865 -0.0326483 0.005
       vertex -0.0835154 -0.0343616 -0.005
       vertex -0.0835154 -0.0343616 0.005
    endloop
  endfacet
  facet normal -0.680172 -0.733052 -0
    outer loop
       vertex -0.0835154 -0.0343616 0.005
       vertex -0.0835154 -0.0343616 -0.005
       vertex -0.0817609 -0.0359895 0.005
    endloop
  endfacet
  facet normal -0.680172 -0.733052 0
    outer loop
       vertex -0.0835154 -0.0343616 -0.005
       vertex -0.0817609 -0.0359895 -0.005
       vertex -0.0817609 -0.0359895 0.005
    endloop
  endfacet
  facet normal -0.642789 -0.766043 0
    outer loop
       vertex -0.0817609 -0.0359895 -0.005
       vertex -0.0799275 -0.0375279 -0.005
       vertex -0.0817609 -0.0359895 0.005
    endloop
  endfacet
  facet normal -0.642789 -0.766043 0
    outer loop
       vertex -0.0817609 -0.0359895 0.005
       vertex -0.0799275 -0.0375279 -0.005
       vertex -0.0799275 -0.0375279 0.005
    endloop
  endfacet
  facet normal -0.603804 -0.797133 0
    outer loop
       vertex -0.0799275 -0.0375279 -0.005
       vertex -0.0780197 -0.038973 -0.005
       vertex -0.0799275 -0.0375279 0.005
    endloop
  endfacet
  facet normal -0.603804 -0.797133 0
    outer loop
       vertex -0.0799275 -0.0375279 0.005
       vertex -0.0780197 -0.038973 -0.005
       vertex -0.0780197 -0.038973 0.005
    endloop
  endfacet
  facet normal -0.56332 -0.826239 0
    outer loop
       vertex -0.0780197 -0.038973 0.005
       vertex -0.0760422 -0.0403212 -0.005
       vertex -0.0760422 -0.0403212 0.005
    endloop
  endfacet
  facet normal -0.56332 -0.826239 0
    outer loop
       vertex -0.0780197 -0.038973 -0.005
       vertex -0.0760422 -0.0403212 -0.005
       vertex -0.0780197 -0.038973 0.005
    endloop
  endfacet
  facet normal -0.521435 -0.853291 -0
    outer loop
       vertex -0.0760422 -0.0403212 0.005
       vertex -0.0760422 -0.0403212 -0.005
       vertex -0.074 -0.0415692 0.005
    endloop
  endfacet
  facet normal -0.521435 -0.853291 0
    outer loop
       vertex -0.0760422 -0.0403212 -0.005
       vertex -0.074 -0.0415692 -0.005
       vertex -0.074 -0.0415692 0.005
    endloop
  endfacet
  facet normal -0.478255 -0.878221 0
    outer loop
       vertex -0.074 -0.0415692 0.005
       vertex -0.0718981 -0.0427138 -0.005
       vertex -0.0718981 -0.0427138 0.005
    endloop
  endfacet
  facet normal -0.478255 -0.878221 0
    outer loop
       vertex -0.074 -0.0415692 -0.005
       vertex -0.0718981 -0.0427138 -0.005
       vertex -0.074 -0.0415692 0.005
    endloop
  endfacet
  facet normal -0.433884 -0.900969 0
    outer loop
       vertex -0.0718981 -0.0427138 0.005
       vertex -0.0697418 -0.0437523 -0.005
       vertex -0.0697418 -0.0437523 0.005
    endloop
  endfacet
  facet normal -0.433884 -0.900969 0
    outer loop
       vertex -0.0718981 -0.0427138 -0.005
       vertex -0.0697418 -0.0437523 -0.005
       vertex -0.0718981 -0.0427138 0.005
    endloop
  endfacet
  facet normal -0.388434 -0.921477 0
    outer loop
       vertex -0.0697418 -0.0437523 0.005
       vertex -0.0675364 -0.0446819 -0.005
       vertex -0.0675364 -0.0446819 0.005
    endloop
  endfacet
  facet normal -0.388434 -0.921477 0
    outer loop
       vertex -0.0697418 -0.0437523 -0.005
       vertex -0.0675364 -0.0446819 -0.005
       vertex -0.0697418 -0.0437523 0.005
    endloop
  endfacet
  facet normal -0.34202 -0.939692 0
    outer loop
       vertex -0.0675364 -0.0446819 -0.005
       vertex -0.0652874 -0.0455005 -0.005
       vertex -0.0675364 -0.0446819 0.005
    endloop
  endfacet
  facet normal -0.34202 -0.939692 0
    outer loop
       vertex -0.0675364 -0.0446819 0.005
       vertex -0.0652874 -0.0455005 -0.005
       vertex -0.0652874 -0.0455005 0.005
    endloop
  endfacet
  facet normal -0.294755 -0.955573 0
    outer loop
       vertex -0.0652874 -0.0455005 -0.005
       vertex -0.0630003 -0.046206 -0.005
       vertex -0.0652874 -0.0455005 0.005
    endloop
  endfacet
  facet normal -0.294755 -0.955573 0
    outer loop
       vertex -0.0652874 -0.0455005 0.005
       vertex -0.0630003 -0.046206 -0.005
       vertex -0.0630003 -0.046206 0.005
    endloop
  endfacet
  facet normal -0.246757 -0.969077 0
    outer loop
       vertex -0.0630003 -0.046206 -0.005
       vertex -0.060681 -0.0467965 -0.005
       vertex -0.0630003 -0.046206 0.005
    endloop
  endfacet
  facet normal -0.246757 -0.969077 0
    outer loop
       vertex -0.0630003 -0.046206 0.005
       vertex -0.060681 -0.0467965 -0.005
       vertex -0.060681 -0.0467965 0.005
    endloop
  endfacet
  facet normal -0.198146 -0.980173 0
    outer loop
       vertex -0.060681 -0.0467965 -0.005
       vertex -0.0583351 -0.0472708 -0.005
       vertex -0.060681 -0.0467965 0.005
    endloop
  endfacet
  facet normal -0.198146 -0.980173 0
    outer loop
       vertex -0.060681 -0.0467965 0.005
       vertex -0.0583351 -0.0472708 -0.005
       vertex -0.0583351 -0.0472708 0.005
    endloop
  endfacet
  facet normal -0.149043 -0.988831 -0
    outer loop
       vertex -0.0583351 -0.0472708 0.005
       vertex -0.0583351 -0.0472708 -0.005
       vertex -0.0559685 -0.0476275 0.005
    endloop
  endfacet
  facet normal -0.149043 -0.988831 0
    outer loop
       vertex -0.0583351 -0.0472708 -0.005
       vertex -0.0559685 -0.0476275 -0.005
       vertex -0.0559685 -0.0476275 0.005
    endloop
  endfacet
  facet normal -0.0995678 -0.995031 0
    outer loop
       vertex -0.0559685 -0.0476275 -0.005
       vertex -0.053587 -0.0478658 -0.005
       vertex -0.0559685 -0.0476275 0.005
    endloop
  endfacet
  facet normal -0.0995678 -0.995031 0
    outer loop
       vertex -0.0559685 -0.0476275 0.005
       vertex -0.053587 -0.0478658 -0.005
       vertex -0.053587 -0.0478658 0.005
    endloop
  endfacet
  facet normal -0.0498453 -0.998757 0
    outer loop
       vertex -0.053587 -0.0478658 -0.005
       vertex -0.0511967 -0.0479851 -0.005
       vertex -0.053587 -0.0478658 0.005
    endloop
  endfacet
  facet normal -0.0498453 -0.998757 0
    outer loop
       vertex -0.053587 -0.0478658 0.005
       vertex -0.0511967 -0.0479851 -0.005
       vertex -0.0511967 -0.0479851 0.005
    endloop
  endfacet
  facet normal 0 -1 0
    outer loop
       vertex -0.0511967 -0.0479851 -0.005
       vertex -0.0488033 -0.0479851 -0.005
       vertex -0.0511967 -0.0479851 0.005
    endloop
  endfacet
  facet normal 0 -1 0
    outer loop
       vertex -0.0511967 -0.0479851 0.005
       vertex -0.0488033 -0.0479851 -0.005
       vertex -0.0488033 -0.0479851 0.005
    endloop
  endfacet
  facet normal 0.0498453 -0.998757 0
    outer loop
       vertex -0.0488033 -0.0479851 -0.005
       vertex -0.046413 -0.0478658 -0.005
       vertex -0.0488033 -0.0479851 0.005
    endloop
  endfacet
  facet normal 0.0498453 -0.998757 0
    outer loop
       vertex -0.0488033 -0.0479851 0.005
       vertex -0.046413 -0.0478658 -0.005
       vertex -0.046413 -0.0478658 0.005
    endloop
  endfacet
  facet normal 0.0995678 -0.995031 0
    outer loop
       vertex -0.046413 -0.0478658 -0.005
       vertex -0.0440315 -0.0476275 -0.005
       vertex -0.046413 -0.0478658 0.005
    endloop
  endfacet
  facet normal 0.0995678 -0.995031 0
    outer loop
       vertex -0.046413 -0.0478658 0.005
       vertex -0.0440315 -0.0476275 -0.005
       vertex -0.0440315 -0.0476275 0.005
    endloop
  endfacet
  facet normal 0.149043 -0.988831 0
    outer loop
       vertex -0.0440315 -0.0476275 -0.005
       vertex -0.0416649 -0.0472708 -0.005
       vertex -0.0440315 -0.0476275 0.005
    endloop
  endfacet
  facet normal 0.149043 -0.988831 0
    outer loop
       vertex -0.0440315 -0.0476275 0.005
       vertex -0.0416649 -0.0472708 -0.005
       vertex -0.0416649 -0.0472708 0.005
    endloop
  endfacet
  facet normal 0.198146 -0.980173 0
    outer loop
       vertex -0.0416649 -0.0472708 -0.005
       vertex -0.039319 -0.0467965 -0.005
       vertex -0.0416649 -0.0472708 0.005
    endloop
  endfacet
  facet normal 0.198146 -0.980173 0
    outer loop
       vertex -0.0416649 -0.0472708 0.005
       vertex -0.039319 -0.0467965 -0.005
       vertex -0.039319 -0.0467965 0.005
    endloop
  endfacet
  facet normal 0.246757 -0.969077 0
    outer loop
       vertex -0.039319 -0.0467965 0.005
       vertex -0.0369997 -0.046206 -0.005
       vertex -0.0369997 -0.046206 0.005
    endloop
  endfacet
  facet normal 0.246757 -0.969077 0
    outer loop
       vertex -0.039319 -0.0467965 -0.005
       vertex -0.0369997 -0.046206 -0.005
       vertex -0.039319 -0.0467965 0.005
    endloop
  endfacet
  facet normal 0.294756 -0.955573 0
    outer loop
       vertex -0.0369997 -0.046206 0.005
       vertex -0.0347126 -0.0455005 -0.005
       vertex -0.0347126 -0.0455005 0.005
    endloop
  endfacet
  facet normal 0.294756 -0.955573 0
    outer loop
       vertex -0.0369997 -0.046206 -0.005
       vertex -0.0347126 -0.0455005 -0.005
       vertex -0.0369997 -0.046206 0.005
    endloop
  endfacet
  facet normal 0.34202 -0.939693 0
    outer loop
       vertex -0.0347126 -0.0455005 0.005
       vertex -0.0324636 -0.0446819 -0.005
       vertex -0.0324636 -0.0446819 0.005
    endloop
  endfacet
  facet normal 0.34202 -0.939693 0
    outer loop
       vertex -0.0347126 -0.0455005 -0.005
       vertex -0.0324636 -0.0446819 -0.005
       vertex -0.0347126 -0.0455005 0.005
    endloop
  endfacet
  facet normal 0.388434 -0.921477 0
    outer loop
       vertex -0.0324636 -0.0446819 0.005
       vertex -0.0302582 -0.0437523 -0.005
       vertex -0.0302582 -0.0437523 0.005
    endloop
  endfacet
  facet normal 0.388434 -0.921477 0
    outer loop
       vertex -0.0324636 -0.0446819 -0.005
       vertex -0.0302582 -0.0437523 -0.005
       vertex -0.0324636 -0.0446819 0.005
    endloop
  endfacet
  facet normal 0.433883 -0.900969 0
    outer loop
       vertex -0.0302582 -0.0437523 0.005
       vertex -0.0281019 -0.0427138 -0.005
       vertex -0.0281019 -0.0427138 0.005
    endloop
  endfacet
  facet normal 0.478255 -0.878221 0
    outer loop
       vertex -0.0281019 -0.0427138 0.005
       vertex -0.0281019 -0.0427138 -0.005
       vertex -0.026 -0.0415692 0.005
    endloop
  endfacet
  facet normal 0.433883 -0.900969 0
    outer loop
       vertex -0.0302582 -0.0437523 -0.005
       vertex -0.0281019 -0.0427138 -0.005
       vertex -0.0302582 -0.0437523 0.005
    endloop
  endfacet
  facet normal 0.478255 -0.878221 0
    outer loop
       vertex -0.0281019 -0.0427138 -0.005
       vertex -0.026 -0.0415692 -0.005
       vertex -0.026 -0.0415692 0.005
    endloop
  endfacet
  facet normal 0.521435 -0.853291 0
    outer loop
       vertex -0.026 -0.0415692 0.005
       vertex -0.0239578 -0.0403212 -0.005
       vertex -0.0239578 -0.0403212 0.005
    endloop
  endfacet
  facet normal 0.521435 -0.853291 0
    outer loop
       vertex -0.026 -0.0415692 -0.005
       vertex -0.0239578 -0.0403212 -0.005
       vertex -0.026 -0.0415692 0.005
    endloop
  endfacet
  facet normal 0.56332 -0.826239 0
    outer loop
       vertex -0.0239578 -0.0403212 0.005
       vertex -0.0219803 -0.038973 -0.005
       vertex -0.0219803 -0.038973 0.005
    endloop
  endfacet
  facet normal 0.56332 -0.826239 0
    outer loop
       vertex -0.0239578 -0.0403212 -0.005
       vertex -0.0219803 -0.038973 -0.005
       vertex -0.0239578 -0.0403212 0.005
    endloop
  endfacet
  facet normal 0.603804 -0.797133 0
    outer loop
       vertex -0.0219803 -0.038973 0.005
       vertex -0.0200725 -0.0375279 -0.005
       vertex -0.0200725 -0.0375279 0.005
    endloop
  endfacet
  facet normal 0.603804 -0.797133 0
    outer loop
       vertex -0.0219803 -0.038973 -0.005
       vertex -0.0200725 -0.0375279 -0.005
       vertex -0.0219803 -0.038973 0.005
    endloop
  endfacet
  facet normal 0.642788 -0.766044 0
    outer loop
       vertex -0.0200725 -0.0375279 0.005
       vertex -0.0182391 -0.0359895 -0.005
       vertex -0.0182391 -0.0359895 0.005
    endloop
  endfacet
  facet normal 0.642788 -0.766044 0
    outer loop
       vertex -0.0200725 -0.0375279 -0.005
       vertex -0.0182391 -0.0359895 -0.005
       vertex -0.0200725 -0.0375279 0.005
    endloop
  endfacet
  facet normal 0.680172 -0.733052 0
    outer loop
       vertex -0.0182391 -0.0359895 0.005
       vertex -0.0164846 -0.0343616 -0.005
       vertex -0.0164846 -0.0343616 0.005
    endloop
  endfacet
  facet normal 0.680172 -0.733052 0
    outer loop
       vertex -0.0182391 -0.0359895 -0.005
       vertex -0.0164846 -0.0343616 -0.005
       vertex -0.0182391 -0.0359895 0.005
    endloop
  endfacet
  facet normal 0.715867 -0.698237 0
    outer loop
       vertex -0.0164846 -0.0343616 0.005
       vertex -0.0148135 -0.0326483 -0.005
       vertex -0.0148135 -0.0326483 0.005
    endloop
  endfacet
  facet normal 0.715867 -0.698237 0
    outer loop
       vertex -0.0164846 -0.0343616 -0.005
       vertex -0.0148135 -0.0326483 -0.005
       vertex -0.0164846 -0.0343616 0.005
    endloop
  endfacet
  facet normal 0.749781 -0.661686 0
    outer loop
       vertex -0.0148135 -0.0326483 -0.005
       vertex -0.0132299 -0.0308538 -0.005
       vertex -0.0148135 -0.0326483 0.005
    endloop
  endfacet
  facet normal 0.749781 -0.661686 0
    outer loop
       vertex -0.0148135 -0.0326483 0.005
       vertex -0.0132299 -0.0308538 -0.005
       vertex -0.0132299 -0.0308538 0.005
    endloop
  endfacet
  facet normal 0.781831 -0.62349 0
    outer loop
       vertex -0.0132299 -0.0308538 -0.005
       vertex -0.0117376 -0.0289826 -0.005
       vertex -0.0132299 -0.0308538 0.005
    endloop
  endfacet
  facet normal 0.781831 -0.62349 0
    outer loop
       vertex -0.0132299 -0.0308538 0.005
       vertex -0.0117376 -0.0289826 -0.005
       vertex -0.0117376 -0.0289826 0.005
    endloop
  endfacet
  facet normal 0.811938 -0.583743 0
    outer loop
       vertex -0.0117376 -0.0289826 -0.005
       vertex -0.0103405 -0.0270394 -0.005
       vertex -0.0117376 -0.0289826 0.005
    endloop
  endfacet
  facet normal 0.811938 -0.583743 0
    outer loop
       vertex -0.0117376 -0.0289826 0.005
       vertex -0.0103405 -0.0270394 -0.005
       vertex -0.0103405 -0.0270394 0.005
    endloop
  endfacet
  facet normal 0.840026 -0.542547 0
    outer loop
       vertex -0.0103405 -0.0270394 -0.005
       vertex -0.00904204 -0.0250289 -0.005
       vertex -0.0103405 -0.0270394 0.005
    endloop
  endfacet
  facet normal 0.840026 -0.542547 0
    outer loop
       vertex -0.0103405 -0.0270394 0.005
       vertex -0.00904204 -0.0250289 -0.005
       vertex -0.00904204 -0.0250289 0.005
    endloop
  endfacet
  facet normal 0.866026 -0.5 0
    outer loop
       vertex -0.00904204 -0.0250289 -0.005
       vertex -0.00784536 -0.0229562 -0.005
       vertex -0.00904204 -0.0250289 0.005
    endloop
  endfacet
  facet normal 0.866026 -0.5 0
    outer loop
       vertex -0.00904204 -0.0250289 0.005
       vertex -0.00784536 -0.0229562 -0.005
       vertex -0.00784536 -0.0229562 0.005
    endloop
  endfacet
  facet normal 0.889872 -0.456211 0
    outer loop
       vertex -0.00784536 -0.0229562 0.005
       vertex -0.00675349 -0.0208264 -0.005
       vertex -0.00675349 -0.0208264 0.005
    endloop
  endfacet
  facet normal 0.889872 -0.456211 0
    outer loop
       vertex -0.00784536 -0.0229562 -0.005
       vertex -0.00675349 -0.0208264 -0.005
       vertex -0.00784536 -0.0229562 0.005
    endloop
  endfacet
  facet normal 0.911506 -0.411287 0
    outer loop
       vertex -0.00675349 -0.0208264 0.005
       vertex -0.00576914 -0.0186449 -0.005
       vertex -0.00576914 -0.0186449 0.005
    endloop
  endfacet
  facet normal 0.911506 -0.411287 0
    outer loop
       vertex -0.00675349 -0.0208264 -0.005
       vertex -0.00576914 -0.0186449 -0.005
       vertex -0.00675349 -0.0208264 0.005
    endloop
  endfacet
  facet normal 0.930874 -0.365341 0
    outer loop
       vertex -0.00576914 -0.0186449 0.005
       vertex -0.00489475 -0.016417 -0.005
       vertex -0.00489475 -0.016417 0.005
    endloop
  endfacet
  facet normal 0.947927 -0.318487 0
    outer loop
       vertex -0.00489475 -0.016417 0.005
       vertex -0.00489475 -0.016417 -0.005
       vertex -0.00413251 -0.0141482 0.005
    endloop
  endfacet
  facet normal 0.930874 -0.365341 0
    outer loop
       vertex -0.00576914 -0.0186449 -0.005
       vertex -0.00489475 -0.016417 -0.005
       vertex -0.00576914 -0.0186449 0.005
    endloop
  endfacet
  facet normal 0.947927 -0.318487 0
    outer loop
       vertex -0.00489475 -0.016417 -0.005
       vertex -0.00413251 -0.0141482 -0.005
       vertex -0.00413251 -0.0141482 0.005
    endloop
  endfacet
  facet normal 0.962624 -0.27084 0
    outer loop
       vertex -0.00413251 -0.0141482 0.005
       vertex -0.00348429 -0.0118444 -0.005
       vertex -0.00348429 -0.0118444 0.005
    endloop
  endfacet
  facet normal 0.962624 -0.27084 0
    outer loop
       vertex -0.00413251 -0.0141482 -0.005
       vertex -0.00348429 -0.0118444 -0.005
       vertex -0.00413251 -0.0141482 0.005
    endloop
  endfacet
  facet normal 0.974928 -0.222521 0
    outer loop
       vertex -0.00348429 -0.0118444 0.005
       vertex -0.00295172 -0.00951101 -0.005
       vertex -0.00295172 -0.00951101 0.005
    endloop
  endfacet
  facet normal 0.974928 -0.222521 0
    outer loop
       vertex -0.00348429 -0.0118444 -0.005
       vertex -0.00295172 -0.00951101 -0.005
       vertex -0.00348429 -0.0118444 0.005
    endloop
  endfacet
  facet normal 0.984808 -0.173648 0
    outer loop
       vertex -0.00295172 -0.00951101 0.005
       vertex -0.00253612 -0.00715403 -0.005
       vertex -0.00253612 -0.00715403 0.005
    endloop
  endfacet
  facet normal 0.984808 -0.173648 0
    outer loop
       vertex -0.00295172 -0.00951101 -0.005
       vertex -0.00253612 -0.00715403 -0.005
       vertex -0.00295172 -0.00951101 0.005
    endloop
  endfacet
  facet normal 0.992239 -0.124344 0
    outer loop
       vertex -0.00253612 -0.00715403 0.005
       vertex -0.00223852 -0.00477926 -0.005
       vertex -0.00223852 -0.00477926 0.005
    endloop
  endfacet
  facet normal 0.992239 -0.124344 0
    outer loop
       vertex -0.00253612 -0.00715403 -0.005
       vertex -0.00223852 -0.00477926 -0.005
       vertex -0.00253612 -0.00715403 0.005
    endloop
  endfacet
  facet normal 0.997204 -0.0747301 0
    outer loop
       vertex -0.00223852 -0.00477926 0.005
       vertex -0.00205967 -0.0023926 -0.005
       vertex -0.00205967 -0.0023926 0.005
    endloop
  endfacet
  facet normal 0.999689 -0.0249307 0
    outer loop
       vertex -0.00205967 -0.0023926 0.005
       vertex -0.00205967 -0.0023926 -0.005
       vertex -0.002 0 0.005
    endloop
  endfacet
  facet normal 0.997204 -0.0747301 0
    outer loop
       vertex -0.00223852 -0.00477926 -0.005
       vertex -0.00205967 -0.0023926 -0.005
       vertex -0.00223852 -0.00477926 0.005
    endloop
  endfacet
  facet normal 0.999689 -0.0249307 0
    outer loop
       vertex -0.00205967 -0.0023926 -0.005
       vertex -0.002 0 -0.005
       vertex -0.002 0 0.005
    endloop
  endfacet
  facet normal 0 0 -1
    outer loop
       vertex -0.0851865 -0.0326483 -0.005
       vertex -0.0799275 -0.0375279 -0.005
       vertex -0.0835154 -0.0343616 -0.005
    endloop
  endfacet
  facet normal 0 0 -1
    outer loop
       vertex -0.0835154 -0.0343616 -0.005
       vertex -0.0799275 -0.0375279 -0.005
       vertex -0.0817609 -0.0359895 -0.005
    endloop
  endfacet
  facet normal 0 0 -1
    outer loop
       vertex -0.0882624 -0.0289826 -0.005
       vertex -0.0896595 -0.0270394 -0.005
       vertex -0.0867701 -0.0308538 -0.005
    endloop
  endfacet
  facet normal 0 0 -1
    outer loop
       vertex -0.0799275 -0.0375279 -0.005
       vertex -0.0760422 -0.0403212 -0.005
       vertex -0.0780197 -0.038973 -0.005
    endloop
  endfacet
  facet normal 0 0 -1
    outer loop
       vertex -0.0799275 -0.0375279 -0.005
       vertex -0.0718981 -0.0427138 -0.005
       vertex -0.0760422 -0.0403212 -0.005
    endloop
  endfacet
  facet normal 0 0 -1
    outer loop
       vertex -0.0760422 -0.0403212 -0.005
       vertex -0.0718981 -0.0427138 -0.005
       vertex -0.074 -0.0415692 -0.005
    endloop
  endfacet
  facet normal 0 0 -1
    outer loop
       vertex -0.0921546 -0.0229562 -0.005
       vertex -0.0932465 -0.0208264 -0.005
       vertex -0.090958 -0.0250289 -0.005
    endloop
  endfacet
  facet normal 0 0 -1
    outer loop
       vertex -0.0896595 -0.0270394 -0.005
       vertex -0.0942309 -0.0186449 -0.005
       vertex -0.0867701 -0.0308538 -0.005
    endloop
  endfacet
  facet normal 0 0 -1
    outer loop
       vertex -0.0932465 -0.0208264 -0.005
       vertex -0.0942309 -0.0186449 -0.005
       vertex -0.090958 -0.0250289 -0.005
    endloop
  endfacet
  facet normal 0 0 -1
    outer loop
       vertex -0.090958 -0.0250289 -0.005
       vertex -0.0942309 -0.0186449 -0.005
       vertex -0.0896595 -0.0270394 -0.005
    endloop
  endfacet
  facet normal 0 0 -1
    outer loop
       vertex -0.0867701 -0.0308538 -0.005
       vertex -0.0942309 -0.0186449 -0.005
       vertex -0.0851865 -0.0326483 -0.005
    endloop
  endfacet
  facet normal 0 0 -1
    outer loop
       vertex -0.0718981 -0.0427138 -0.005
       vertex -0.0675364 -0.0446819 -0.005
       vertex -0.0697418 -0.0437523 -0.005
    endloop
  endfacet
  facet normal 0 0 -1
    outer loop
       vertex -0.0799275 -0.0375279 -0.005
       vertex -0.0652874 -0.0455005 -0.005
       vertex -0.0718981 -0.0427138 -0.005
    endloop
  endfacet
  facet normal 0 0 -1
    outer loop
       vertex -0.0718981 -0.0427138 -0.005
       vertex -0.0652874 -0.0455005 -0.005
       vertex -0.0675364 -0.0446819 -0.005
    endloop
  endfacet
  facet normal 0 0 -1
    outer loop
       vertex -0.0951052 -0.016417 -0.005
       vertex -0.0958675 -0.0141482 -0.005
       vertex -0.0942309 -0.0186449 -0.005
    endloop
  endfacet
  facet normal 0 0 -1
    outer loop
       vertex -0.0942309 -0.0186449 -0.005
       vertex -0.0965157 -0.0118444 -0.005
       vertex -0.0851865 -0.0326483 -0.005
    endloop
  endfacet
  facet normal 0 0 -1
    outer loop
       vertex -0.0958675 -0.0141482 -0.005
       vertex -0.0965157 -0.0118444 -0.005
       vertex -0.0942309 -0.0186449 -0.005
    endloop
  endfacet
  facet normal 0 0 -1
    outer loop
       vertex -0.0851865 -0.0326483 -0.005
       vertex -0.0583351 -0.0472708 -0.005
       vertex -0.0799275 -0.0375279 -0.005
    endloop
  endfacet
  facet normal 0 0 -1
    outer loop
       vertex -0.0799275 -0.0375279 -0.005
       vertex -0.0583351 -0.0472708 -0.005
       vertex -0.0652874 -0.0455005 -0.005
    endloop
  endfacet
  facet normal 0 0 -1
    outer loop
       vertex -0.0652874 -0.0455005 -0.005
       vertex -0.0583351 -0.0472708 -0.005
       vertex -0.0630003 -0.046206 -0.005
    endloop
  endfacet
  facet normal 0 0 -1
    outer loop
       vertex -0.0630003 -0.046206 -0.005
       vertex -0.0583351 -0.0472708 -0.005
       vertex -0.060681 -0.0467965 -0.005
    endloop
  endfacet
  facet normal 0 0 -1
    outer loop
       vertex -0.0851865 -0.0326483 -0.005
       vertex -0.0559685 -0.0476275 -0.005
       vertex -0.0583351 -0.0472708 -0.005
    endloop
  endfacet
  facet normal 0 0 -1
    outer loop
       vertex -0.0851865 -0.0326483 -0.005
       vertex -0.053587 -0.0478658 -0.005
       vertex -0.0559685 -0.0476275 -0.005
    endloop
  endfacet
  facet normal 0 0 -1
    outer loop
       vertex -0.0977615 -0.00477926 -0.005
       vertex -0.0979403 -0.0023926 -0.005
       vertex -0.0974639 -0.00715403 -0.005
    endloop
  endfacet
  facet normal 0 0 -1
    outer loop
       vertex -0.0974639 -0.00715403 -0.005
       vertex -0.0979403 -0.0023926 -0.005
       vertex -0.0970483 -0.00951101 -0.005
    endloop
  endfacet
  facet normal 0 0 -1
    outer loop
       vertex -0.0970483 -0.00951101 -0.005
       vertex -0.0979403 -0.0023926 -0.005
       vertex -0.0965157 -0.0118444 -0.005
    endloop
  endfacet
  facet normal 0 0 -1
    outer loop
       vertex -0.053587 -0.0478658 -0.005
       vertex -0.0488033 -0.0479851 -0.005
       vertex -0.0511967 -0.0479851 -0.005
    endloop
  endfacet
  facet normal 0 0 -1
    outer loop
       vertex -0.098 -1.64652e-16 -0.005
       vertex -0.0979403 0.0023926 -0.005
       vertex -0.0979403 -0.0023926 -0.005
    endloop
  endfacet
  facet normal 0 0 -1
    outer loop
       vertex -0.0979403 -0.0023926 -0.005
       vertex -0.0977615 0.00477926 -0.005
       vertex -0.0965157 -0.0118444 -0.005
    endloop
  endfacet
  facet normal 0 0 -1
    outer loop
       vertex -0.0979403 0.0023926 -0.005
       vertex -0.0977615 0.00477926 -0.005
       vertex -0.0979403 -0.0023926 -0.005
    endloop
  endfacet
  facet normal 0 0 -1
    outer loop
       vertex -0.0488033 -0.0479851 -0.005
       vertex -0.0440315 -0.0476275 -0.005
       vertex -0.046413 -0.0478658 -0.005
    endloop
  endfacet
  facet normal 0 0 -1
    outer loop
       vertex -0.0488033 -0.0479851 -0.005
       vertex -0.0416649 -0.0472708 -0.005
       vertex -0.0440315 -0.0476275 -0.005
    endloop
  endfacet
  facet normal 0 -0 -1
    outer loop
       vertex -0.0974639 0.00715403 -0.005
       vertex -0.0970483 0.00951101 -0.005
       vertex -0.0977615 0.00477926 -0.005
    endloop
  endfacet
  facet normal 0 -0 -1
    outer loop
       vertex -0.0970483 0.00951101 -0.005
       vertex -0.0965157 0.0118444 -0.005
       vertex -0.0977615 0.00477926 -0.005
    endloop
  endfacet
  facet normal 0 0 -1
    outer loop
       vertex -0.0488033 -0.0479851 -0.005
       vertex -0.0369997 -0.046206 -0.005
       vertex -0.0416649 -0.0472708 -0.005
    endloop
  endfacet
  facet normal 0 0 -1
    outer loop
       vertex -0.0416649 -0.0472708 -0.005
       vertex -0.0369997 -0.046206 -0.005
       vertex -0.039319 -0.0467965 -0.005
    endloop
  endfacet
  facet normal 0 0 -1
    outer loop
       vertex -0.0369997 -0.046206 -0.005
       vertex -0.0302582 -0.0437523 -0.005
       vertex -0.0347126 -0.0455005 -0.005
    endloop
  endfacet
  facet normal 0 0 -1
    outer loop
       vertex -0.0347126 -0.0455005 -0.005
       vertex -0.0302582 -0.0437523 -0.005
       vertex -0.0324636 -0.0446819 -0.005
    endloop
  endfacet
  facet normal 0 -0 -1
    outer loop
       vertex -0.0942309 0.0186449 -0.005
       vertex -0.0932465 0.0208264 -0.005
       vertex -0.0951052 0.016417 -0.005
    endloop
  endfacet
  facet normal 0 -0 -1
    outer loop
       vertex -0.0951052 0.016417 -0.005
       vertex -0.0932465 0.0208264 -0.005
       vertex -0.0958675 0.0141482 -0.005
    endloop
  endfacet
  facet normal 0 -0 -1
    outer loop
       vertex -0.0958675 0.0141482 -0.005
       vertex -0.0932465 0.0208264 -0.005
       vertex -0.0965157 0.0118444 -0.005
    endloop
  endfacet
  facet normal 0 -0 -1
    outer loop
       vertex -0.0965157 0.0118444 -0.005
       vertex -0.0932465 0.0208264 -0.005
       vertex -0.0977615 0.00477926 -0.005
    endloop
  endfacet
  facet normal 0 -0 -1
    outer loop
       vertex -0.0932465 0.0208264 -0.005
       vertex -0.0921546 0.0229562 -0.005
       vertex -0.0977615 0.00477926 -0.005
    endloop
  endfacet
  facet normal 0 0 -1
    outer loop
       vertex -0.0965157 -0.0118444 -0.005
       vertex -0.0921546 0.0229562 -0.005
       vertex -0.0851865 -0.0326483 -0.005
    endloop
  endfacet
  facet normal 0 0 -1
    outer loop
       vertex -0.0977615 0.00477926 -0.005
       vertex -0.0921546 0.0229562 -0.005
       vertex -0.0965157 -0.0118444 -0.005
    endloop
  endfacet
  facet normal 0 0 -1
    outer loop
       vertex -0.0302582 -0.0437523 -0.005
       vertex -0.026 -0.0415692 -0.005
       vertex -0.0281019 -0.0427138 -0.005
    endloop
  endfacet
  facet normal 0 0 -1
    outer loop
       vertex -0.0302582 -0.0437523 -0.005
       vertex -0.0239578 -0.0403212 -0.005
       vertex -0.026 -0.0415692 -0.005
    endloop
  endfacet
  facet normal 0 0 -1
    outer loop
       vertex -0.0369997 -0.046206 -0.005
       vertex -0.0239578 -0.0403212 -0.005
       vertex -0.0302582 -0.0437523 -0.005
    endloop
  endfacet
  facet normal 0 -0 -1
    outer loop
       vertex -0.0896595 0.0270394 -0.005
       vertex -0.0882624 0.0289826 -0.005
       vertex -0.090958 0.0250289 -0.005
    endloop
  endfacet
  facet normal 0 -0 -1
    outer loop
       vertex -0.090958 0.0250289 -0.005
       vertex -0.0882624 0.0289826 -0.005
       vertex -0.0921546 0.0229562 -0.005
    endloop
  endfacet
  facet normal 0 0 -1
    outer loop
       vertex -0.0239578 -0.0403212 -0.005
       vertex -0.0200725 -0.0375279 -0.005
       vertex -0.0219803 -0.038973 -0.005
    endloop
  endfacet
  facet normal 0 0 -1
    outer loop
       vertex -0.0488033 -0.0479851 -0.005
       vertex -0.0200725 -0.0375279 -0.005
       vertex -0.0369997 -0.046206 -0.005
    endloop
  endfacet
  facet normal 0 0 -1
    outer loop
       vertex -0.0369997 -0.046206 -0.005
       vertex -0.0200725 -0.0375279 -0.005
       vertex -0.0239578 -0.0403212 -0.005
    endloop
  endfacet
  facet normal 0 -0 -1
    outer loop
       vertex -0.0882624 0.0289826 -0.005
       vertex -0.0867701 0.0308538 -0.005
       vertex -0.0921546 0.0229562 -0.005
    endloop
  endfacet
  facet normal 0 -0 -1
    outer loop
       vertex -0.0867701 0.0308538 -0.005
       vertex -0.0851865 0.0326483 -0.005
       vertex -0.0921546 0.0229562 -0.005
    endloop
  endfacet
  facet normal 0 0 -1
    outer loop
       vertex -0.0200725 -0.0375279 -0.005
       vertex -0.0164846 -0.0343616 -0.005
       vertex -0.0182391 -0.0359895 -0.005
    endloop
  endfacet
  facet normal 0 -0 -1
    outer loop
       vertex -0.0835154 0.0343616 -0.005
       vertex -0.0817609 0.0359895 -0.005
       vertex -0.0851865 0.0326483 -0.005
    endloop
  endfacet
  facet normal 0 -0 -1
    outer loop
       vertex -0.0851865 0.0326483 -0.005
       vertex -0.0817609 0.0359895 -0.005
       vertex -0.0921546 0.0229562 -0.005
    endloop
  endfacet
  facet normal 0 -0 -1
    outer loop
       vertex -0.0799275 0.0375279 -0.005
       vertex -0.0780197 0.038973 -0.005
       vertex -0.0817609 0.0359895 -0.005
    endloop
  endfacet
  facet normal 0 -0 -1
    outer loop
       vertex -0.0817609 0.0359895 -0.005
       vertex -0.0780197 0.038973 -0.005
       vertex -0.0921546 0.0229562 -0.005
    endloop
  endfacet
  facet normal 0 0 -1
    outer loop
       vertex -0.0164846 -0.0343616 -0.005
       vertex -0.0103405 -0.0270394 -0.005
       vertex -0.0148135 -0.0326483 -0.005
    endloop
  endfacet
  facet normal 0 0 -1
    outer loop
       vertex -0.0148135 -0.0326483 -0.005
       vertex -0.0103405 -0.0270394 -0.005
       vertex -0.0132299 -0.0308538 -0.005
    endloop
  endfacet
  facet normal 0 0 -1
    outer loop
       vertex -0.0132299 -0.0308538 -0.005
       vertex -0.0103405 -0.0270394 -0.005
       vertex -0.0117376 -0.0289826 -0.005
    endloop
  endfacet
  facet normal 0 0 -1
    outer loop
       vertex -0.0200725 -0.0375279 -0.005
       vertex -0.0103405 -0.0270394 -0.005
       vertex -0.0164846 -0.0343616 -0.005
    endloop
  endfacet
  facet normal 0 -0 -1
    outer loop
       vertex -0.0780197 0.038973 -0.005
       vertex -0.0760422 0.0403212 -0.005
       vertex -0.0921546 0.0229562 -0.005
    endloop
  endfacet
  facet normal 0 0 -1
    outer loop
       vertex -0.0921546 0.0229562 -0.005
       vertex -0.0697418 0.0437523 -0.005
       vertex -0.0851865 -0.0326483 -0.005
    endloop
  endfacet
  facet normal 0 -0 -1
    outer loop
       vertex -0.0718981 0.0427138 -0.005
       vertex -0.0697418 0.0437523 -0.005
       vertex -0.074 0.0415692 -0.005
    endloop
  endfacet
  facet normal 0 -0 -1
    outer loop
       vertex -0.074 0.0415692 -0.005
       vertex -0.0697418 0.0437523 -0.005
       vertex -0.0760422 0.0403212 -0.005
    endloop
  endfacet
  facet normal 0 -0 -1
    outer loop
       vertex -0.0760422 0.0403212 -0.005
       vertex -0.0697418 0.0437523 -0.005
       vertex -0.0921546 0.0229562 -0.005
    endloop
  endfacet
  facet normal 0 0 -1
    outer loop
       vertex -0.0851865 -0.0326483 -0.005
       vertex -0.0697418 0.0437523 -0.005
       vertex -0.053587 -0.0478658 -0.005
    endloop
  endfacet
  facet normal 0 0 -1
    outer loop
       vertex -0.053587 -0.0478658 -0.005
       vertex -0.0697418 0.0437523 -0.005
       vertex -0.0488033 -0.0479851 -0.005
    endloop
  endfacet
  facet normal 0 0 -1
    outer loop
       vertex -0.00784536 -0.0229562 -0.005
       vertex -0.00489475 -0.016417 -0.005
       vertex -0.00675349 -0.0208264 -0.005
    endloop
  endfacet
  facet normal 0 0 -1
    outer loop
       vertex -0.00675349 -0.0208264 -0.005
       vertex -0.00489475 -0.016417 -0.005
       vertex -0.00576914 -0.0186449 -0.005
    endloop
  endfacet
  facet normal 0 0 -1
    outer loop
       vertex -0.0103405 -0.0270394 -0.005
       vertex -0.0630003 0.046206 -0.005
       vertex -0.00904204 -0.0250289 -0.005
    endloop
  endfacet
  facet normal 0 -0 -1
    outer loop
       vertex -0.0652874 0.0455005 -0.005
       vertex -0.0630003 0.046206 -0.005
       vertex -0.0675364 0.0446819 -0.005
    endloop
  endfacet
  facet normal 0 0 -1
    outer loop
       vertex -0.0488033 -0.0479851 -0.005
       vertex -0.0630003 0.046206 -0.005
       vertex -0.0200725 -0.0375279 -0.005
    endloop
  endfacet
  facet normal 0 -0 -1
    outer loop
       vertex -0.0675364 0.0446819 -0.005
       vertex -0.0630003 0.046206 -0.005
       vertex -0.0697418 0.0437523 -0.005
    endloop
  endfacet
  facet normal 0 0 -1
    outer loop
       vertex -0.0200725 -0.0375279 -0.005
       vertex -0.0630003 0.046206 -0.005
       vertex -0.0103405 -0.0270394 -0.005
    endloop
  endfacet
  facet normal 0 0 -1
    outer loop
       vertex -0.0697418 0.0437523 -0.005
       vertex -0.0630003 0.046206 -0.005
       vertex -0.0488033 -0.0479851 -0.005
    endloop
  endfacet
  facet normal 0 0 -1
    outer loop
       vertex -0.00489475 -0.016417 -0.005
       vertex -0.00295172 -0.00951101 -0.005
       vertex -0.00413251 -0.0141482 -0.005
    endloop
  endfacet
  facet normal 0 0 -1
    outer loop
       vertex -0.00413251 -0.0141482 -0.005
       vertex -0.00295172 -0.00951101 -0.005
       vertex -0.00348429 -0.0118444 -0.005
    endloop
  endfacet
  facet normal 0 -0 -1
    outer loop
       vertex -0.060681 0.0467965 -0.005
       vertex -0.0583351 0.0472708 -0.005
       vertex -0.0630003 0.046206 -0.005
    endloop
  endfacet
  facet normal 0 0 -1
    outer loop
       vertex -0.00489475 -0.016417 -0.005
       vertex -0.00253612 -0.00715403 -0.005
       vertex -0.00295172 -0.00951101 -0.005
    endloop
  endfacet
  facet normal 0 0 -1
    outer loop
       vertex -0.00489475 -0.016417 -0.005
       vertex -0.00223852 -0.00477926 -0.005
       vertex -0.00253612 -0.00715403 -0.005
    endloop
  endfacet
  facet normal 0 -0 -1
    outer loop
       vertex -0.0559685 0.0476275 -0.005
       vertex -0.053587 0.0478658 -0.005
       vertex -0.0583351 0.0472708 -0.005
    endloop
  endfacet
  facet normal 0 0 -1
    outer loop
       vertex -0.00489475 -0.016417 -0.005
       vertex -0.00205967 -0.0023926 -0.005
       vertex -0.00223852 -0.00477926 -0.005
    endloop
  endfacet
  facet normal 0 0 -1
    outer loop
       vertex -0.00904204 -0.0250289 -0.005
       vertex -0.00205967 -0.0023926 -0.005
       vertex -0.00784536 -0.0229562 -0.005
    endloop
  endfacet
  facet normal 0 0 -1
    outer loop
       vertex -0.0630003 0.046206 -0.005
       vertex -0.00205967 -0.0023926 -0.005
       vertex -0.00904204 -0.0250289 -0.005
    endloop
  endfacet
  facet normal 0 0 -1
    outer loop
       vertex -0.00784536 -0.0229562 -0.005
       vertex -0.00205967 -0.0023926 -0.005
       vertex -0.00489475 -0.016417 -0.005
    endloop
  endfacet
  facet normal 0 -0 -1
    outer loop
       vertex -0.053587 0.0478658 -0.005
       vertex -0.046413 0.0478658 -0.005
       vertex -0.0583351 0.0472708 -0.005
    endloop
  endfacet
  facet normal 0 0 -1
    outer loop
       vertex -0.0630003 0.046206 -0.005
       vertex -0.046413 0.0478658 -0.005
       vertex -0.00205967 -0.0023926 -0.005
    endloop
  endfacet
  facet normal 0 0 -1
    outer loop
       vertex -0.00205967 -0.0023926 -0.005
       vertex -0.046413 0.0478658 -0.005
       vertex -0.002 0 -0.005
    endloop
  endfacet
  facet normal -0 -0 -1
    outer loop
       vertex -0.0488033 0.0479851 -0.005
       vertex -0.046413 0.0478658 -0.005
       vertex -0.0511967 0.0479851 -0.005
    endloop
  endfacet
  facet normal 0 -0 -1
    outer loop
       vertex -0.0511967 0.0479851 -0.005
       vertex -0.046413 0.0478658 -0.005
       vertex -0.053587 0.0478658 -0.005
    endloop
  endfacet
  facet normal 0 -0 -1
    outer loop
       vertex -0.0583351 0.0472708 -0.005
       vertex -0.046413 0.0478658 -0.005
       vertex -0.0630003 0.046206 -0.005
    endloop
  endfacet
  facet normal 0 0 -1
    outer loop
       vertex -0.00205967 0.0023926 -0.005
       vertex -0.00253612 0.00715403 -0.005
       vertex -0.00223852 0.00477926 -0.005
    endloop
  endfacet
  facet normal 0 0 -1
    outer loop
       vertex -0.00205967 0.0023926 -0.005
       vertex -0.00295172 0.00951101 -0.005
       vertex -0.00253612 0.00715403 -0.005
    endloop
  endfacet
  facet normal -0 -0 -1
    outer loop
       vertex -0.0416649 0.0472708 -0.005
       vertex -0.039319 0.0467965 -0.005
       vertex -0.0440315 0.0476275 -0.005
    endloop
  endfacet
  facet normal -0 -0 -1
    outer loop
       vertex -0.0440315 0.0476275 -0.005
       vertex -0.039319 0.0467965 -0.005
       vertex -0.046413 0.0478658 -0.005
    endloop
  endfacet
  facet normal 0 0 -1
    outer loop
       vertex -0.002 0 -0.005
       vertex -0.00348429 0.0118444 -0.005
       vertex -0.00205967 0.0023926 -0.005
    endloop
  endfacet
  facet normal 0 0 -1
    outer loop
       vertex -0.00205967 0.0023926 -0.005
       vertex -0.00348429 0.0118444 -0.005
       vertex -0.00295172 0.00951101 -0.005
    endloop
  endfacet
  facet normal -0 -0 -1
    outer loop
       vertex -0.039319 0.0467965 -0.005
       vertex -0.0369997 0.046206 -0.005
       vertex -0.046413 0.0478658 -0.005
    endloop
  endfacet
  facet normal 0 0 -1
    outer loop
       vertex -0.00348429 0.0118444 -0.005
       vertex -0.00489475 0.016417 -0.005
       vertex -0.00413251 0.0141482 -0.005
    endloop
  endfacet
  facet normal 0 0 -1
    outer loop
       vertex -0.002 0 -0.005
       vertex -0.00489475 0.016417 -0.005
       vertex -0.00348429 0.0118444 -0.005
    endloop
  endfacet
  facet normal -0 -0 -1
    outer loop
       vertex -0.0347126 0.0455005 -0.005
       vertex -0.0324636 0.0446819 -0.005
       vertex -0.0369997 0.046206 -0.005
    endloop
  endfacet
  facet normal -0 -0 -1
    outer loop
       vertex -0.0369997 0.046206 -0.005
       vertex -0.0324636 0.0446819 -0.005
       vertex -0.046413 0.0478658 -0.005
    endloop
  endfacet
  facet normal 0 0 -1
    outer loop
       vertex -0.00489475 0.016417 -0.005
       vertex -0.00675349 0.0208264 -0.005
       vertex -0.00576914 0.0186449 -0.005
    endloop
  endfacet
  facet normal -0 -0 -1
    outer loop
       vertex -0.0302582 0.0437523 -0.005
       vertex -0.0281019 0.0427138 -0.005
       vertex -0.0324636 0.0446819 -0.005
    endloop
  endfacet
  facet normal -0 -0 -1
    outer loop
       vertex -0.0324636 0.0446819 -0.005
       vertex -0.0281019 0.0427138 -0.005
       vertex -0.046413 0.0478658 -0.005
    endloop
  endfacet
  facet normal 0 0 -1
    outer loop
       vertex -0.00489475 0.016417 -0.005
       vertex -0.00784536 0.0229562 -0.005
       vertex -0.00675349 0.0208264 -0.005
    endloop
  endfacet
  facet normal -0 -0 -1
    outer loop
       vertex -0.0281019 0.0427138 -0.005
       vertex -0.026 0.0415692 -0.005
       vertex -0.046413 0.0478658 -0.005
    endloop
  endfacet
  facet normal 0 0 -1
    outer loop
       vertex -0.00489475 0.016417 -0.005
       vertex -0.00904204 0.0250289 -0.005
       vertex -0.00784536 0.0229562 -0.005
    endloop
  endfacet
  facet normal -0 -0 -1
    outer loop
       vertex -0.0239578 0.0403212 -0.005
       vertex -0.0219803 0.038973 -0.005
       vertex -0.026 0.0415692 -0.005
    endloop
  endfacet
  facet normal -0 -0 -1
    outer loop
       vertex -0.026 0.0415692 -0.005
       vertex -0.0219803 0.038973 -0.005
       vertex -0.046413 0.0478658 -0.005
    endloop
  endfacet
  facet normal 0 0 -1
    outer loop
       vertex -0.00904204 0.0250289 -0.005
       vertex -0.0117376 0.0289826 -0.005
       vertex -0.0103405 0.0270394 -0.005
    endloop
  endfacet
  facet normal 0 0 -1
    outer loop
       vertex -0.00489475 0.016417 -0.005
       vertex -0.0117376 0.0289826 -0.005
       vertex -0.00904204 0.0250289 -0.005
    endloop
  endfacet
  facet normal -0 -0 -1
    outer loop
       vertex -0.0200725 0.0375279 -0.005
       vertex -0.0182391 0.0359895 -0.005
       vertex -0.0219803 0.038973 -0.005
    endloop
  endfacet
  facet normal 0 0 -1
    outer loop
       vertex -0.0117376 0.0289826 -0.005
       vertex -0.0148135 0.0326483 -0.005
       vertex -0.0132299 0.0308538 -0.005
    endloop
  endfacet
  facet normal 0 0 -1
    outer loop
       vertex -0.00489475 0.016417 -0.005
       vertex -0.0148135 0.0326483 -0.005
       vertex -0.0117376 0.0289826 -0.005
    endloop
  endfacet
  facet normal 0 0 -1
    outer loop
       vertex -0.002 0 -0.005
       vertex -0.0164846 0.0343616 -0.005
       vertex -0.00489475 0.016417 -0.005
    endloop
  endfacet
  facet normal -0 -0 -1
    outer loop
       vertex -0.0219803 0.038973 -0.005
       vertex -0.0164846 0.0343616 -0.005
       vertex -0.046413 0.0478658 -0.005
    endloop
  endfacet
  facet normal -0 -0 -1
    outer loop
       vertex -0.0182391 0.0359895 -0.005
       vertex -0.0164846 0.0343616 -0.005
       vertex -0.0219803 0.038973 -0.005
    endloop
  endfacet
  facet normal 0 0 -1
    outer loop
       vertex -0.00489475 0.016417 -0.005
       vertex -0.0164846 0.0343616 -0.005
       vertex -0.0148135 0.0326483 -0.005
    endloop
  endfacet
  facet normal 0 0 -1
    outer loop
       vertex -0.046413 0.0478658 -0.005
       vertex -0.0164846 0.0343616 -0.005
       vertex -0.002 0 -0.005
    endloop
  endfacet
  facet normal 0 0 1
    outer loop
       vertex -0.0799275 -0.0375279 0.005
       vertex -0.0851865 -0.0326483 0.005
       vertex -0.0835154 -0.0343616 0.005
    endloop
  endfacet
  facet normal 0 0 1
    outer loop
       vertex -0.0799275 -0.0375279 0.005
       vertex -0.0835154 -0.0343616 0.005
       vertex -0.0817609 -0.0359895 0.005
    endloop
  endfacet
  facet normal 0 0 1
    outer loop
       vertex -0.0896595 -0.0270394 0.005
       vertex -0.0882624 -0.0289826 0.005
       vertex -0.0867701 -0.0308538 0.005
    endloop
  endfacet
  facet normal 0 0 1
    outer loop
       vertex -0.0760422 -0.0403212 0.005
       vertex -0.0799275 -0.0375279 0.005
       vertex -0.0780197 -0.038973 0.005
    endloop
  endfacet
  facet normal 0 0 1
    outer loop
       vertex -0.0718981 -0.0427138 0.005
       vertex -0.0799275 -0.0375279 0.005
       vertex -0.0760422 -0.0403212 0.005
    endloop
  endfacet
  facet normal 0 0 1
    outer loop
       vertex -0.0718981 -0.0427138 0.005
       vertex -0.0760422 -0.0403212 0.005
       vertex -0.074 -0.0415692 0.005
    endloop
  endfacet
  facet normal 0 0 1
    outer loop
       vertex -0.0932465 -0.0208264 0.005
       vertex -0.0921546 -0.0229562 0.005
       vertex -0.090958 -0.0250289 0.005
    endloop
  endfacet
  facet normal 0 0 1
    outer loop
       vertex -0.0942309 -0.0186449 0.005
       vertex -0.0896595 -0.0270394 0.005
       vertex -0.0867701 -0.0308538 0.005
    endloop
  endfacet
  facet normal 0 0 1
    outer loop
       vertex -0.0942309 -0.0186449 0.005
       vertex -0.0932465 -0.0208264 0.005
       vertex -0.090958 -0.0250289 0.005
    endloop
  endfacet
  facet normal 0 0 1
    outer loop
       vertex -0.0942309 -0.0186449 0.005
       vertex -0.090958 -0.0250289 0.005
       vertex -0.0896595 -0.0270394 0.005
    endloop
  endfacet
  facet normal 0 0 1
    outer loop
       vertex -0.0942309 -0.0186449 0.005
       vertex -0.0867701 -0.0308538 0.005
       vertex -0.0851865 -0.0326483 0.005
    endloop
  endfacet
  facet normal 0 0 1
    outer loop
       vertex -0.0675364 -0.0446819 0.005
       vertex -0.0718981 -0.0427138 0.005
       vertex -0.0697418 -0.0437523 0.005
    endloop
  endfacet
  facet normal 0 0 1
    outer loop
       vertex -0.0652874 -0.0455005 0.005
       vertex -0.0799275 -0.0375279 0.005
       vertex -0.0718981 -0.0427138 0.005
    endloop
  endfacet
  facet normal 0 0 1
    outer loop
       vertex -0.0652874 -0.0455005 0.005
       vertex -0.0718981 -0.0427138 0.005
       vertex -0.0675364 -0.0446819 0.005
    endloop
  endfacet
  facet normal 0 0 1
    outer loop
       vertex -0.0958675 -0.0141482 0.005
       vertex -0.0951052 -0.016417 0.005
       vertex -0.0942309 -0.0186449 0.005
    endloop
  endfacet
  facet normal 0 0 1
    outer loop
       vertex -0.0965157 -0.0118444 0.005
       vertex -0.0942309 -0.0186449 0.005
       vertex -0.0851865 -0.0326483 0.005
    endloop
  endfacet
  facet normal 0 0 1
    outer loop
       vertex -0.0965157 -0.0118444 0.005
       vertex -0.0958675 -0.0141482 0.005
       vertex -0.0942309 -0.0186449 0.005
    endloop
  endfacet
  facet normal 0 0 1
    outer loop
       vertex -0.0583351 -0.0472708 0.005
       vertex -0.0851865 -0.0326483 0.005
       vertex -0.0799275 -0.0375279 0.005
    endloop
  endfacet
  facet normal 0 0 1
    outer loop
       vertex -0.0583351 -0.0472708 0.005
       vertex -0.0799275 -0.0375279 0.005
       vertex -0.0652874 -0.0455005 0.005
    endloop
  endfacet
  facet normal 0 0 1
    outer loop
       vertex -0.0583351 -0.0472708 0.005
       vertex -0.0652874 -0.0455005 0.005
       vertex -0.0630003 -0.046206 0.005
    endloop
  endfacet
  facet normal 0 0 1
    outer loop
       vertex -0.0583351 -0.0472708 0.005
       vertex -0.0630003 -0.046206 0.005
       vertex -0.060681 -0.0467965 0.005
    endloop
  endfacet
  facet normal 0 0 1
    outer loop
       vertex -0.0559685 -0.0476275 0.005
       vertex -0.0851865 -0.0326483 0.005
       vertex -0.0583351 -0.0472708 0.005
    endloop
  endfacet
  facet normal 0 0 1
    outer loop
       vertex -0.053587 -0.0478658 0.005
       vertex -0.0851865 -0.0326483 0.005
       vertex -0.0559685 -0.0476275 0.005
    endloop
  endfacet
  facet normal 0 0 1
    outer loop
       vertex -0.0979403 -0.0023926 0.005
       vertex -0.0977615 -0.00477926 0.005
       vertex -0.0974639 -0.00715403 0.005
    endloop
  endfacet
  facet normal 0 0 1
    outer loop
       vertex -0.0979403 -0.0023926 0.005
       vertex -0.0974639 -0.00715403 0.005
       vertex -0.0970483 -0.00951101 0.005
    endloop
  endfacet
  facet normal 0 0 1
    outer loop
       vertex -0.0979403 -0.0023926 0.005
       vertex -0.0970483 -0.00951101 0.005
       vertex -0.0965157 -0.0118444 0.005
    endloop
  endfacet
  facet normal 0 0 1
    outer loop
       vertex -0.0488033 -0.0479851 0.005
       vertex -0.053587 -0.0478658 0.005
       vertex -0.0511967 -0.0479851 0.005
    endloop
  endfacet
  facet normal 0 0 1
    outer loop
       vertex -0.0979403 0.0023926 0.005
       vertex -0.098 -1.64652e-16 0.005
       vertex -0.0979403 -0.0023926 0.005
    endloop
  endfacet
  facet normal 0 0 1
    outer loop
       vertex -0.0977615 0.00477926 0.005
       vertex -0.0979403 -0.0023926 0.005
       vertex -0.0965157 -0.0118444 0.005
    endloop
  endfacet
  facet normal 0 0 1
    outer loop
       vertex -0.0977615 0.00477926 0.005
       vertex -0.0979403 0.0023926 0.005
       vertex -0.0979403 -0.0023926 0.005
    endloop
  endfacet
  facet normal 0 0 1
    outer loop
       vertex -0.0440315 -0.0476275 0.005
       vertex -0.0488033 -0.0479851 0.005
       vertex -0.046413 -0.0478658 0.005
    endloop
  endfacet
  facet normal 0 0 1
    outer loop
       vertex -0.0416649 -0.0472708 0.005
       vertex -0.0488033 -0.0479851 0.005
       vertex -0.0440315 -0.0476275 0.005
    endloop
  endfacet
  facet normal 0 0 1
    outer loop
       vertex -0.0970483 0.00951101 0.005
       vertex -0.0974639 0.00715403 0.005
       vertex -0.0977615 0.00477926 0.005
    endloop
  endfacet
  facet normal 0 0 1
    outer loop
       vertex -0.0965157 0.0118444 0.005
       vertex -0.0970483 0.00951101 0.005
       vertex -0.0977615 0.00477926 0.005
    endloop
  endfacet
  facet normal 0 0 1
    outer loop
       vertex -0.0369997 -0.046206 0.005
       vertex -0.0488033 -0.0479851 0.005
       vertex -0.0416649 -0.0472708 0.005
    endloop
  endfacet
  facet normal 0 0 1
    outer loop
       vertex -0.0369997 -0.046206 0.005
       vertex -0.0416649 -0.0472708 0.005
       vertex -0.039319 -0.0467965 0.005
    endloop
  endfacet
  facet normal 0 0 1
    outer loop
       vertex -0.0302582 -0.0437523 0.005
       vertex -0.0369997 -0.046206 0.005
       vertex -0.0347126 -0.0455005 0.005
    endloop
  endfacet
  facet normal 0 0 1
    outer loop
       vertex -0.0302582 -0.0437523 0.005
       vertex -0.0347126 -0.0455005 0.005
       vertex -0.0324636 -0.0446819 0.005
    endloop
  endfacet
  facet normal 0 0 1
    outer loop
       vertex -0.0932465 0.0208264 0.005
       vertex -0.0942309 0.0186449 0.005
       vertex -0.0951052 0.016417 0.005
    endloop
  endfacet
  facet normal 0 0 1
    outer loop
       vertex -0.0932465 0.0208264 0.005
       vertex -0.0951052 0.016417 0.005
       vertex -0.0958675 0.0141482 0.005
    endloop
  endfacet
  facet normal 0 0 1
    outer loop
       vertex -0.0932465 0.0208264 0.005
       vertex -0.0958675 0.0141482 0.005
       vertex -0.0965157 0.0118444 0.005
    endloop
  endfacet
  facet normal 0 0 1
    outer loop
       vertex -0.0932465 0.0208264 0.005
       vertex -0.0965157 0.0118444 0.005
       vertex -0.0977615 0.00477926 0.005
    endloop
  endfacet
  facet normal 0 0 1
    outer loop
       vertex -0.0921546 0.0229562 0.005
       vertex -0.0932465 0.0208264 0.005
       vertex -0.0977615 0.00477926 0.005
    endloop
  endfacet
  facet normal 0 0 1
    outer loop
       vertex -0.0921546 0.0229562 0.005
       vertex -0.0965157 -0.0118444 0.005
       vertex -0.0851865 -0.0326483 0.005
    endloop
  endfacet
  facet normal 0 0 1
    outer loop
       vertex -0.0921546 0.0229562 0.005
       vertex -0.0977615 0.00477926 0.005
       vertex -0.0965157 -0.0118444 0.005
    endloop
  endfacet
  facet normal 0 0 1
    outer loop
       vertex -0.026 -0.0415692 0.005
       vertex -0.0302582 -0.0437523 0.005
       vertex -0.0281019 -0.0427138 0.005
    endloop
  endfacet
  facet normal 0 0 1
    outer loop
       vertex -0.0239578 -0.0403212 0.005
       vertex -0.0302582 -0.0437523 0.005
       vertex -0.026 -0.0415692 0.005
    endloop
  endfacet
  facet normal 0 0 1
    outer loop
       vertex -0.0239578 -0.0403212 0.005
       vertex -0.0369997 -0.046206 0.005
       vertex -0.0302582 -0.0437523 0.005
    endloop
  endfacet
  facet normal 0 0 1
    outer loop
       vertex -0.0882624 0.0289826 0.005
       vertex -0.0896595 0.0270394 0.005
       vertex -0.090958 0.0250289 0.005
    endloop
  endfacet
  facet normal 0 0 1
    outer loop
       vertex -0.0882624 0.0289826 0.005
       vertex -0.090958 0.0250289 0.005
       vertex -0.0921546 0.0229562 0.005
    endloop
  endfacet
  facet normal 0 0 1
    outer loop
       vertex -0.0200725 -0.0375279 0.005
       vertex -0.0239578 -0.0403212 0.005
       vertex -0.0219803 -0.038973 0.005
    endloop
  endfacet
  facet normal 0 0 1
    outer loop
       vertex -0.0200725 -0.0375279 0.005
       vertex -0.0488033 -0.0479851 0.005
       vertex -0.0369997 -0.046206 0.005
    endloop
  endfacet
  facet normal 0 0 1
    outer loop
       vertex -0.0200725 -0.0375279 0.005
       vertex -0.0369997 -0.046206 0.005
       vertex -0.0239578 -0.0403212 0.005
    endloop
  endfacet
  facet normal 0 0 1
    outer loop
       vertex -0.0867701 0.0308538 0.005
       vertex -0.0882624 0.0289826 0.005
       vertex -0.0921546 0.0229562 0.005
    endloop
  endfacet
  facet normal 0 0 1
    outer loop
       vertex -0.0851865 0.0326483 0.005
       vertex -0.0867701 0.0308538 0.005
       vertex -0.0921546 0.0229562 0.005
    endloop
  endfacet
  facet normal 0 0 1
    outer loop
       vertex -0.0164846 -0.0343616 0.005
       vertex -0.0200725 -0.0375279 0.005
       vertex -0.0182391 -0.0359895 0.005
    endloop
  endfacet
  facet normal 0 0 1
    outer loop
       vertex -0.0817609 0.0359895 0.005
       vertex -0.0835154 0.0343616 0.005
       vertex -0.0851865 0.0326483 0.005
    endloop
  endfacet
  facet normal 0 0 1
    outer loop
       vertex -0.0817609 0.0359895 0.005
       vertex -0.0851865 0.0326483 0.005
       vertex -0.0921546 0.0229562 0.005
    endloop
  endfacet
  facet normal 0 0 1
    outer loop
       vertex -0.0780197 0.038973 0.005
       vertex -0.0799275 0.0375279 0.005
       vertex -0.0817609 0.0359895 0.005
    endloop
  endfacet
  facet normal 0 0 1
    outer loop
       vertex -0.0780197 0.038973 0.005
       vertex -0.0817609 0.0359895 0.005
       vertex -0.0921546 0.0229562 0.005
    endloop
  endfacet
  facet normal 0 0 1
    outer loop
       vertex -0.0103405 -0.0270394 0.005
       vertex -0.0164846 -0.0343616 0.005
       vertex -0.0148135 -0.0326483 0.005
    endloop
  endfacet
  facet normal 0 0 1
    outer loop
       vertex -0.0103405 -0.0270394 0.005
       vertex -0.0148135 -0.0326483 0.005
       vertex -0.0132299 -0.0308538 0.005
    endloop
  endfacet
  facet normal 0 0 1
    outer loop
       vertex -0.0103405 -0.0270394 0.005
       vertex -0.0132299 -0.0308538 0.005
       vertex -0.0117376 -0.0289826 0.005
    endloop
  endfacet
  facet normal 0 0 1
    outer loop
       vertex -0.0103405 -0.0270394 0.005
       vertex -0.0200725 -0.0375279 0.005
       vertex -0.0164846 -0.0343616 0.005
    endloop
  endfacet
  facet normal 0 0 1
    outer loop
       vertex -0.0760422 0.0403212 0.005
       vertex -0.0780197 0.038973 0.005
       vertex -0.0921546 0.0229562 0.005
    endloop
  endfacet
  facet normal 0 0 1
    outer loop
       vertex -0.0697418 0.0437523 0.005
       vertex -0.0921546 0.0229562 0.005
       vertex -0.0851865 -0.0326483 0.005
    endloop
  endfacet
  facet normal 0 0 1
    outer loop
       vertex -0.0697418 0.0437523 0.005
       vertex -0.0718981 0.0427138 0.005
       vertex -0.074 0.0415692 0.005
    endloop
  endfacet
  facet normal 0 0 1
    outer loop
       vertex -0.0697418 0.0437523 0.005
       vertex -0.074 0.0415692 0.005
       vertex -0.0760422 0.0403212 0.005
    endloop
  endfacet
  facet normal 0 0 1
    outer loop
       vertex -0.0697418 0.0437523 0.005
       vertex -0.0760422 0.0403212 0.005
       vertex -0.0921546 0.0229562 0.005
    endloop
  endfacet
  facet normal 0 0 1
    outer loop
       vertex -0.0697418 0.0437523 0.005
       vertex -0.0851865 -0.0326483 0.005
       vertex -0.053587 -0.0478658 0.005
    endloop
  endfacet
  facet normal 0 0 1
    outer loop
       vertex -0.0697418 0.0437523 0.005
       vertex -0.053587 -0.0478658 0.005
       vertex -0.0488033 -0.0479851 0.005
    endloop
  endfacet
  facet normal 0 0 1
    outer loop
       vertex -0.00489475 -0.016417 0.005
       vertex -0.00784536 -0.0229562 0.005
       vertex -0.00675349 -0.0208264 0.005
    endloop
  endfacet
  facet normal 0 0 1
    outer loop
       vertex -0.00489475 -0.016417 0.005
       vertex -0.00675349 -0.0208264 0.005
       vertex -0.00576914 -0.0186449 0.005
    endloop
  endfacet
  facet normal 0 0 1
    outer loop
       vertex -0.0630003 0.046206 0.005
       vertex -0.0103405 -0.0270394 0.005
       vertex -0.00904204 -0.0250289 0.005
    endloop
  endfacet
  facet normal 0 0 1
    outer loop
       vertex -0.0630003 0.046206 0.005
       vertex -0.0652874 0.0455005 0.005
       vertex -0.0675364 0.0446819 0.005
    endloop
  endfacet
  facet normal 0 0 1
    outer loop
       vertex -0.0630003 0.046206 0.005
       vertex -0.0488033 -0.0479851 0.005
       vertex -0.0200725 -0.0375279 0.005
    endloop
  endfacet
  facet normal 0 0 1
    outer loop
       vertex -0.0630003 0.046206 0.005
       vertex -0.0675364 0.0446819 0.005
       vertex -0.0697418 0.0437523 0.005
    endloop
  endfacet
  facet normal 0 0 1
    outer loop
       vertex -0.0630003 0.046206 0.005
       vertex -0.0200725 -0.0375279 0.005
       vertex -0.0103405 -0.0270394 0.005
    endloop
  endfacet
  facet normal 0 0 1
    outer loop
       vertex -0.0630003 0.046206 0.005
       vertex -0.0697418 0.0437523 0.005
       vertex -0.0488033 -0.0479851 0.005
    endloop
  endfacet
  facet normal 0 0 1
    outer loop
       vertex -0.00295172 -0.00951101 0.005
       vertex -0.00489475 -0.016417 0.005
       vertex -0.00413251 -0.0141482 0.005
    endloop
  endfacet
  facet normal 0 0 1
    outer loop
       vertex -0.00295172 -0.00951101 0.005
       vertex -0.00413251 -0.0141482 0.005
       vertex -0.00348429 -0.0118444 0.005
    endloop
  endfacet
  facet normal 0 0 1
    outer loop
       vertex -0.0583351 0.0472708 0.005
       vertex -0.060681 0.0467965 0.005
       vertex -0.0630003 0.046206 0.005
    endloop
  endfacet
  facet normal 0 0 1
    outer loop
       vertex -0.00253612 -0.00715403 0.005
       vertex -0.00489475 -0.016417 0.005
       vertex -0.00295172 -0.00951101 0.005
    endloop
  endfacet
  facet normal 0 0 1
    outer loop
       vertex -0.00223852 -0.00477926 0.005
       vertex -0.00489475 -0.016417 0.005
       vertex -0.00253612 -0.00715403 0.005
    endloop
  endfacet
  facet normal 0 0 1
    outer loop
       vertex -0.053587 0.0478658 0.005
       vertex -0.0559685 0.0476275 0.005
       vertex -0.0583351 0.0472708 0.005
    endloop
  endfacet
  facet normal 0 0 1
    outer loop
       vertex -0.00205967 -0.0023926 0.005
       vertex -0.00489475 -0.016417 0.005
       vertex -0.00223852 -0.00477926 0.005
    endloop
  endfacet
  facet normal 0 0 1
    outer loop
       vertex -0.00205967 -0.0023926 0.005
       vertex -0.00904204 -0.0250289 0.005
       vertex -0.00784536 -0.0229562 0.005
    endloop
  endfacet
  facet normal 0 0 1
    outer loop
       vertex -0.00205967 -0.0023926 0.005
       vertex -0.0630003 0.046206 0.005
       vertex -0.00904204 -0.0250289 0.005
    endloop
  endfacet
  facet normal 0 0 1
    outer loop
       vertex -0.00205967 -0.0023926 0.005
       vertex -0.00784536 -0.0229562 0.005
       vertex -0.00489475 -0.016417 0.005
    endloop
  endfacet
  facet normal 0 0 1
    outer loop
       vertex -0.046413 0.0478658 0.005
       vertex -0.053587 0.0478658 0.005
       vertex -0.0583351 0.0472708 0.005
    endloop
  endfacet
  facet normal 0 0 1
    outer loop
       vertex -0.046413 0.0478658 0.005
       vertex -0.0630003 0.046206 0.005
       vertex -0.00205967 -0.0023926 0.005
    endloop
  endfacet
  facet normal 0 0 1
    outer loop
       vertex -0.046413 0.0478658 0.005
       vertex -0.00205967 -0.0023926 0.005
       vertex -0.002 0 0.005
    endloop
  endfacet
  facet normal 0 0 1
    outer loop
       vertex -0.046413 0.0478658 0.005
       vertex -0.0488033 0.0479851 0.005
       vertex -0.0511967 0.0479851 0.005
    endloop
  endfacet
  facet normal 0 0 1
    outer loop
       vertex -0.046413 0.0478658 0.005
       vertex -0.0511967 0.0479851 0.005
       vertex -0.053587 0.0478658 0.005
    endloop
  endfacet
  facet normal 0 0 1
    outer loop
       vertex -0.046413 0.0478658 0.005
       vertex -0.0583351 0.0472708 0.005
       vertex -0.0630003 0.046206 0.005
    endloop
  endfacet
  facet normal 0 0 1
    outer loop
       vertex -0.00253612 0.00715403 0.005
       vertex -0.00205967 0.0023926 0.005
       vertex -0.00223852 0.00477926 0.005
    endloop
  endfacet
  facet normal 0 0 1
    outer loop
       vertex -0.00295172 0.00951101 0.005
       vertex -0.00205967 0.0023926 0.005
       vertex -0.00253612 0.00715403 0.005
    endloop
  endfacet
  facet normal 0 0 1
    outer loop
       vertex -0.039319 0.0467965 0.005
       vertex -0.0416649 0.0472708 0.005
       vertex -0.0440315 0.0476275 0.005
    endloop
  endfacet
  facet normal 0 0 1
    outer loop
       vertex -0.039319 0.0467965 0.005
       vertex -0.0440315 0.0476275 0.005
       vertex -0.046413 0.0478658 0.005
    endloop
  endfacet
  facet normal 0 0 1
    outer loop
       vertex -0.00348429 0.0118444 0.005
       vertex -0.002 0 0.005
       vertex -0.00205967 0.0023926 0.005
    endloop
  endfacet
  facet normal 0 0 1
    outer loop
       vertex -0.00348429 0.0118444 0.005
       vertex -0.00205967 0.0023926 0.005
       vertex -0.00295172 0.00951101 0.005
    endloop
  endfacet
  facet normal 0 0 1
    outer loop
       vertex -0.0369997 0.046206 0.005
       vertex -0.039319 0.0467965 0.005
       vertex -0.046413 0.0478658 0.005
    endloop
  endfacet
  facet normal 0 0 1
    outer loop
       vertex -0.00489475 0.016417 0.005
       vertex -0.00348429 0.0118444 0.005
       vertex -0.00413251 0.0141482 0.005
    endloop
  endfacet
  facet normal 0 0 1
    outer loop
       vertex -0.00489475 0.016417 0.005
       vertex -0.002 0 0.005
       vertex -0.00348429 0.0118444 0.005
    endloop
  endfacet
  facet normal 0 0 1
    outer loop
       vertex -0.0324636 0.0446819 0.005
       vertex -0.0347126 0.0455005 0.005
       vertex -0.0369997 0.046206 0.005
    endloop
  endfacet
  facet normal 0 0 1
    outer loop
       vertex -0.0324636 0.0446819 0.005
       vertex -0.0369997 0.046206 0.005
       vertex -0.046413 0.0478658 0.005
    endloop
  endfacet
  facet normal 0 0 1
    outer loop
       vertex -0.00675349 0.0208264 0.005
       vertex -0.00489475 0.016417 0.005
       vertex -0.00576914 0.0186449 0.005
    endloop
  endfacet
  facet normal 0 0 1
    outer loop
       vertex -0.0281019 0.0427138 0.005
       vertex -0.0302582 0.0437523 0.005
       vertex -0.0324636 0.0446819 0.005
    endloop
  endfacet
  facet normal 0 0 1
    outer loop
       vertex -0.0281019 0.0427138 0.005
       vertex -0.0324636 0.0446819 0.005
       vertex -0.046413 0.0478658 0.005
    endloop
  endfacet
  facet normal 0 0 1
    outer loop
       vertex -0.00784536 0.0229562 0.005
       vertex -0.00489475 0.016417 0.005
       vertex -0.00675349 0.0208264 0.005
    endloop
  endfacet
  facet normal 0 0 1
    outer loop
       vertex -0.026 0.0415692 0.005
       vertex -0.0281019 0.0427138 0.005
       vertex -0.046413 0.0478658 0.005
    endloop
  endfacet
  facet normal 0 0 1
    outer loop
       vertex -0.00904204 0.0250289 0.005
       vertex -0.00489475 0.016417 0.005
       vertex -0.00784536 0.0229562 0.005
    endloop
  endfacet
  facet normal 0 0 1
    outer loop
       vertex -0.0219803 0.038973 0.005
       vertex -0.0239578 0.0403212 0.005
       vertex -0.026 0.0415692 0.005
    endloop
  endfacet
  facet normal 0 0 1
    outer loop
       vertex -0.0219803 0.038973 0.005
       vertex -0.026 0.0415692 0.005
       vertex -0.046413 0.0478658 0.005
    endloop
  endfacet
  facet normal 0 0 1
    outer loop
       vertex -0.0117376 0.0289826 0.005
       vertex -0.00904204 0.0250289 0.005
       vertex -0.0103405 0.0270394 0.005
    endloop
  endfacet
  facet normal 0 0 1
    outer loop
       vertex -0.0117376 0.0289826 0.005
       vertex -0.00489475 0.016417 0.005
       vertex -0.00904204 0.0250289 0.005
    endloop
  endfacet
  facet normal 0 0 1
    outer loop
       vertex -0.0182391 0.0359895 0.005
       vertex -0.0200725 0.0375279 0.005
       vertex -0.0219803 0.038973 0.005
    endloop
  endfacet
  facet normal 0 0 1
    outer loop
       vertex -0.0148135 0.0326483 0.005
       vertex -0.0117376 0.0289826 0.005
       vertex -0.0132299 0.0308538 0.005
    endloop
  endfacet
  facet normal 0 0 1
    outer loop
       vertex -0.0148135 0.0326483 0.005
       vertex -0.00489475 0.016417 0.005
       vertex -0.0117376 0.0289826 0.005
    endloop
  endfacet
  facet normal 0 0 1
    outer loop
       vertex -0.0164846 0.0343616 0.005
       vertex -0.002 0 0.005
       vertex -0.00489475 0.016417 0.005
    endloop
  endfacet
  facet normal 0 0 1
    outer loop
       vertex -0.0164846 0.0343616 0.005
       vertex -0.0219803 0.038973 0.005
       vertex -0.046413 0.0478658 0.005
    endloop
  endfacet
  facet normal 0 0 1
    outer loop
       vertex -0.0164846 0.0343616 0.005
       vertex -0.0182391 0.0359895 0.005
       vertex -0.0219803 0.038973 0.005
    endloop
  endfacet
  facet normal 0 0 1
    outer loop
       vertex -0.0164846 0.0343616 0.005
       vertex -0.00489475 0.016417 0.005
       vertex -0.0148135 0.0326483 0.005
    endloop
  endfacet
  facet normal 0 0 1
    outer loop
       vertex -0.0164846 0.0343616 0.005
       vertex -0.046413 0.0478658 0.005
       vertex -0.002 0 0.005
    endloop
  endfacet
endsolid patch0
